<svg width="171" height="44" viewBox="0 0 171 44" fill="none" xmlns="http://www.w3.org/2000/svg">
<g clip-path="url(#clip0_955_2149)">
<path d="M12.1998 35.2998C12.1998 35.4998 12.2998 35.5998 12.3998 35.6998C12.6998 35.8998 12.9998 36.3998 13.1998 36.3998C13.3998 36.3998 13.4998 36.1998 13.4998 35.9998C13.4998 35.7998 13.3998 35.6998 13.3998 35.4998C13.3998 35.2998 13.1998 35.2998 12.9998 35.0998C12.7998 34.8998 12.4998 34.7998 12.2998 34.9998L12.1998 35.2998ZM13.9998 37.0998C13.7998 36.6998 13.4998 36.6998 13.0998 36.4998C12.8998 36.3998 12.9998 36.3998 12.8998 36.2998C12.7998 36.2998 12.6998 36.2998 12.6998 36.2998C12.1998 36.1998 11.6998 36.0998 11.2998 35.8998C10.9998 35.7998 10.5998 35.6998 10.2998 35.6998C10.1998 35.6998 10.1998 35.6998 10.0998 35.6998C9.9998 35.7998 10.0998 35.8998 10.0998 35.8998C10.3998 36.0998 10.6998 36.1998 10.9998 36.1998L11.8998 36.3998C11.9998 36.3998 11.9998 36.3998 12.1998 36.3998C12.2998 36.3998 12.3998 36.3998 12.4998 36.3998C12.1998 36.6998 12.0998 36.6998 11.9998 36.6998C11.8998 36.6998 11.7998 36.7998 11.6998 36.7998H11.1998H11.0998H10.9998C10.7998 36.7998 10.5998 36.7998 10.2998 36.7998C9.89981 36.7998 9.89981 36.5998 9.7998 37.0998C10.4998 37.7998 10.4998 37.2998 10.7998 37.4998C10.7998 37.6998 10.6998 37.5998 10.8998 37.8998C11.0998 38.1998 11.2998 38.1998 11.7998 38.0998C11.9998 38.0998 12.0998 37.9998 12.1998 37.9998C12.5998 37.7998 13.0998 37.7998 13.1998 37.3998C13.2998 37.2998 13.2998 37.2998 13.1998 37.1998C13.0998 37.0998 12.9998 36.8998 12.9998 36.7998C13.4998 36.8998 13.7998 37.5998 13.9998 37.0998ZM12.3998 37.2998L12.2998 37.3998C12.1998 37.4998 12.2998 37.3998 12.1998 37.4998C11.9998 37.4998 12.0998 37.5998 11.7998 37.5998C11.6998 37.5998 11.5998 37.5998 11.5998 37.4998C11.6998 37.2998 11.6998 37.4998 12.1998 37.4998C12.1998 37.4998 12.1998 37.3998 12.3998 37.2998C12.4998 37.2998 12.3998 37.1998 12.5998 37.1998C12.4998 37.2998 12.4998 37.2998 12.3998 37.2998ZM19.4998 38.1998C19.4998 38.0998 19.3998 38.0998 19.2998 38.0998C19.2998 38.0998 19.1998 38.0998 19.1998 38.1998C19.0998 38.3998 19.1998 38.3998 19.0998 38.4998C18.9998 38.5998 18.9998 38.6998 18.8998 38.6998C18.7998 38.7998 18.6998 38.7998 18.5998 38.8998C18.5998 38.6998 18.5998 38.4998 18.6998 38.3998C18.8998 38.0998 18.7998 38.3998 18.9998 37.9998C19.0998 37.7998 19.1998 37.5998 19.1998 37.2998C19.1998 37.1998 19.1998 36.9998 19.2998 36.8998C19.2998 36.6998 19.0998 36.2998 18.9998 36.2998C18.9998 36.4998 18.9998 36.6998 18.9998 36.9998C18.9998 37.2998 18.8998 37.3998 18.8998 37.5998C18.7998 37.8998 18.6998 38.1998 18.5998 38.4998C18.4998 38.5998 18.5998 38.5998 18.4998 38.5998C18.3998 38.3998 18.5998 38.3998 18.6998 38.1998C18.7998 37.9998 18.6998 37.8998 18.5998 37.8998C18.4998 37.8998 18.2998 37.8998 18.2998 37.9998C18.1998 38.0998 18.0998 38.1998 18.0998 38.1998C17.9998 38.2998 17.9998 38.3998 17.7998 38.3998C17.7998 38.2998 17.7998 38.1998 17.6998 38.1998C17.6998 38.0998 17.6998 38.0998 17.6998 37.9998C17.6998 37.8998 17.6998 37.8998 17.6998 37.7998C17.6998 37.6998 17.6998 37.5998 17.6998 37.4998V37.3998C17.5998 37.1998 17.3998 37.0998 17.1998 37.1998C17.1998 37.1998 17.0998 37.1998 17.0998 37.2998H16.9998H16.8998C16.6998 37.4998 16.5998 37.6998 16.4998 37.7998C16.2998 37.9998 16.1998 38.0998 15.9998 38.1998C15.8998 38.2998 15.6998 38.3998 15.6998 38.4998H15.7998C15.9998 38.4998 15.8998 38.4998 15.8998 38.4998H15.9998C16.1998 38.4998 16.3998 38.2998 16.4998 38.3998C16.1998 38.5998 16.4998 38.5998 16.0998 38.6998C15.9998 38.7998 15.9998 38.6998 15.8998 38.6998C15.6998 38.7998 15.5998 38.7998 15.3998 38.8998C15.1998 38.9998 15.0998 38.9998 14.8998 39.0998C14.6998 39.0998 14.6998 39.0998 14.5998 38.9998C14.2998 39.1998 14.4998 39.4998 14.5998 39.4998C14.8998 39.5998 15.4998 39.1998 15.7998 39.0998C15.8998 39.0998 15.9998 38.9998 16.0998 38.9998C16.2998 38.8998 16.2998 38.8998 16.3998 38.9998C16.2998 39.1998 16.1998 39.2998 15.9998 39.3998C15.8998 39.4998 15.8998 39.4998 15.7998 39.5998C15.6998 39.6998 15.6998 39.7998 15.6998 39.8998C15.7998 39.9998 15.8998 39.9998 15.9998 40.0998C16.1998 40.0998 16.1998 39.9998 16.2998 39.8998C16.3998 39.9998 16.2998 40.1998 16.3998 40.2998C16.4998 40.3998 16.6998 40.3998 16.7998 40.2998L17.1998 39.0998C17.1998 38.9998 17.1998 39.0998 17.1998 38.9998C17.2998 38.6998 17.2998 38.6998 17.5998 38.4998C17.6998 38.3998 17.7998 38.2998 17.8998 38.2998C17.8998 38.5998 17.6998 38.5998 17.6998 38.8998C17.6998 39.1998 17.3998 39.0998 17.4998 39.4998C17.6998 39.5998 17.6998 39.5998 17.7998 39.4998C17.8998 39.3998 17.9998 39.3998 18.1998 39.2998C18.1998 39.5998 18.0998 39.9998 17.9998 40.2998C17.8998 40.6998 18.0998 40.3998 17.7998 40.9998C17.5998 41.2998 17.5998 41.3998 17.7998 41.4998C17.9998 41.5998 18.1998 41.5998 18.2998 41.1998L18.3998 40.3998C18.5998 40.0998 18.6998 39.6998 18.6998 39.2998C18.6998 38.9998 18.8998 38.9998 19.1998 38.7998C19.4998 38.5998 19.6998 38.5998 19.4998 38.1998ZM18.0998 39.0998V38.9998C18.0998 38.8998 18.0998 38.8998 18.1998 38.8998C18.2998 38.8998 18.1998 39.0998 18.0998 39.0998ZM25.7998 39.7998L25.9998 39.6998C25.7998 39.6998 25.5998 39.5998 25.3998 39.5998L25.7998 38.8998C25.7998 38.7998 25.7998 38.7998 25.7998 38.6998C25.7998 38.5998 25.6998 38.4998 25.4998 38.4998L25.0998 38.6998H24.9998V38.4998C24.9998 38.3998 24.9998 38.3998 24.9998 38.2998C25.2998 38.0998 25.4998 37.9998 25.7998 37.8998C25.9998 37.6998 25.8998 37.5998 25.7998 37.4998C25.6998 37.3998 25.5998 37.4998 25.3998 37.4998L24.9998 37.6998L24.8998 37.2998C24.7998 37.1998 24.7998 37.1998 24.6998 37.1998H24.4998L24.2998 37.2998C24.1998 37.2998 24.1998 37.3998 24.1998 37.3998C24.1998 37.3998 24.1998 37.3998 24.1998 37.4998C24.1998 37.4998 24.2998 38.0998 24.2998 38.1998V38.2998V38.3998L23.9998 38.5998C23.8998 38.5998 23.8998 38.6998 23.8998 38.6998C23.8998 38.6998 23.8998 38.7998 23.9998 38.7998C24.0998 38.7998 24.1998 38.7998 24.2998 38.7998C24.2998 38.7998 24.3998 38.6998 24.3998 38.5998L24.4998 38.4998V38.7998C24.4998 38.7998 24.4998 38.7998 24.4998 38.8998C24.4998 39.0998 23.8998 39.2998 23.8998 39.2998C23.8998 39.2998 23.7998 39.2998 23.8998 39.3998C23.9998 39.4998 24.1998 39.4998 24.2998 39.5998C24.3998 39.5998 24.4998 39.6998 24.5998 39.6998C24.4998 39.7998 24.3998 39.8998 24.2998 39.8998L23.4998 39.7998H23.3998V39.8998H23.4998L23.8998 39.9998L24.2998 40.1998H23.9998L24.0998 40.2998H24.1998C24.2998 40.3998 24.3998 40.3998 24.4998 40.2998C24.5998 40.1998 24.5998 40.1998 24.6998 40.0998L24.7998 39.8998H24.9998L25.7998 39.9998V39.7998ZM24.8998 39.3998L24.7998 39.4998C24.6998 39.4998 24.5998 39.4998 24.5998 39.4998C24.5998 39.4998 24.4998 39.4998 24.4998 39.3998C24.6998 39.2998 24.8998 39.1998 25.0998 39.0998C24.9998 39.1998 24.9998 39.2998 24.8998 39.3998ZM24.8998 39.6998L24.9998 40.0998L25.0998 40.1998C25.2998 40.2998 25.4998 40.3998 25.6998 40.3998C25.7998 40.3998 25.8998 40.4998 26.0998 40.4998H26.1998C26.1998 40.4998 26.3998 40.4998 26.3998 40.3998C26.3998 40.3998 26.3998 40.1998 26.5998 40.0998C26.7998 39.9998 26.7998 39.9998 26.7998 39.8998C26.7998 39.5998 26.0998 39.6998 25.9998 39.6998L24.9998 39.5998L24.8998 39.6998ZM23.2998 39.2998C23.3998 39.0998 23.5998 38.9998 23.6998 38.6998C23.6998 38.7998 23.2998 38.9998 23.2998 39.0998C23.2998 38.9998 23.2998 38.8998 23.2998 38.7998V38.6998H23.3998H23.4998H23.5998C23.8998 38.4998 23.5998 38.3998 23.5998 38.3998C23.5998 38.3998 23.4998 38.3998 23.1998 38.3998V38.0998V37.9998C23.1998 37.9998 23.1998 37.7998 23.0998 37.7998C22.8998 37.6998 22.6998 37.6998 22.4998 37.7998C22.3998 37.8998 22.3998 37.8998 22.4998 37.9998C22.4998 37.9998 22.5998 38.5998 22.5998 38.6998C22.4998 38.7998 22.3998 38.7998 22.2998 38.8998C22.1998 38.8998 22.1998 38.9998 22.0998 39.0998C21.9998 39.0998 21.9998 39.1998 21.8998 39.1998H21.7998C21.7998 39.1998 21.8998 39.3998 21.9998 39.3998C21.9998 39.3998 21.9998 39.3998 22.0998 39.3998H22.1998C22.2998 39.2998 22.2998 39.2998 22.3998 39.1998C22.4998 39.0998 22.5998 39.0998 22.6998 38.9998C22.6998 38.9998 22.6998 38.9998 22.6998 39.0998C22.6998 39.1998 22.6998 39.3998 22.6998 39.4998L22.0998 40.0998C21.9998 40.1998 21.9998 40.1998 21.9998 40.2998C21.9998 40.3998 22.0998 40.3998 22.0998 40.4998C22.0998 40.5998 22.1998 40.5998 22.2998 40.5998C22.3998 40.5998 22.3998 40.5998 22.3998 40.4998C22.3998 40.4998 22.5998 40.0998 22.5998 39.9998C22.6998 40.0998 22.7998 40.0998 22.8998 40.1998C22.9998 40.2998 22.9998 40.3998 22.9998 40.3998C22.9998 40.4998 23.0998 40.5998 23.1998 40.5998C23.3998 40.5998 23.5998 40.2998 23.5998 39.9998C23.5998 39.8998 23.5998 39.7998 23.5998 39.6998V39.5998V39.4998L23.4998 38.8998C23.3998 38.8998 23.3998 38.9998 23.3998 38.9998C23.1998 39.2998 23.1998 39.3998 23.2998 39.2998ZM22.8998 40.2998V40.3998C22.7998 40.2998 22.6998 40.2998 22.5998 40.2998L22.7998 39.8998L22.8998 40.2998ZM31.0998 36.5998H30.9998L30.8998 36.6998C30.2998 37.3998 31.3998 37.1998 31.7998 37.1998H31.8998C32.3998 37.1998 32.3998 37.3998 32.4998 36.9998C32.5998 36.6998 32.2998 36.4998 32.1998 36.4998C31.9998 36.2998 31.9998 36.1998 31.6998 36.2998C31.5998 36.2998 31.4998 36.3998 31.3998 36.3998C31.0998 36.4998 31.1998 36.4998 31.0998 36.5998ZM30.2998 34.8998C30.3998 35.0998 30.3998 35.0998 30.4998 35.1998C30.5998 35.2998 30.3998 35.3998 30.3998 35.4998C30.3998 35.5998 30.3998 35.6998 30.1998 35.7998C29.9998 35.5998 30.0998 35.0998 29.9998 34.8998C29.7998 34.3998 29.2998 34.4998 29.2998 34.7998C29.2998 35.0998 29.5998 35.1998 29.7998 35.6998C29.8998 35.9998 29.8998 36.2998 29.7998 36.5998C29.4998 36.9998 29.1998 37.3998 28.7998 37.6998C28.2998 37.9998 28.7998 38.2998 29.0998 38.1998C29.2998 38.0998 29.3998 37.9998 29.5998 37.8998C29.7998 37.6998 30.0998 37.0998 30.2998 37.1998C30.2998 37.0998 30.4998 37.2998 30.2998 37.1998C30.2998 37.2998 30.2998 37.2998 30.2998 37.3998C30.2998 37.5998 30.1998 37.7998 30.0998 37.8998L28.9998 38.7998C28.8998 38.8998 28.7998 38.8998 28.7998 38.9998C28.7998 39.0998 28.7998 38.9998 28.8998 38.9998C28.9998 38.8998 29.1998 38.7998 29.3998 38.7998C29.7998 38.6998 30.0998 38.4998 30.1998 38.1998C30.6998 37.4998 30.4998 37.2998 30.3998 36.6998C30.3998 36.5998 30.3998 36.3998 30.3998 36.2998L30.8998 35.2998C30.9998 34.9998 31.2998 34.7998 30.8998 34.5998C30.7998 34.6998 30.6998 34.6998 30.5998 34.6998C30.4998 34.6998 30.3998 34.7998 30.2998 34.8998ZM20.6998 11.5998C20.0998 11.9998 19.4998 12.4998 19.0998 13.0998C18.8998 13.4998 18.9998 13.6998 19.6998 13.2998C20.5998 12.6998 21.4998 12.2998 22.4998 11.8998C23.5998 11.4998 24.6998 11.2998 25.7998 11.0998C25.8998 11.0998 25.8998 11.1998 25.7998 11.2998C22.8998 13.9998 22.5998 15.9998 23.3998 16.2998C23.9998 16.3998 24.4998 16.3998 24.9998 16.0998C25.5998 15.8998 26.1998 15.6998 26.7998 15.5998C28.2998 15.4998 28.9998 18.4998 27.2998 21.2998C26.2998 22.6998 25.0998 23.8998 23.6998 24.7998C23.5998 24.7998 23.5998 24.6998 23.5998 24.4998C23.5998 24.2998 24.4998 22.3998 23.7998 22.0998C23.6998 22.0998 23.3998 22.0998 23.0998 22.7998C22.7998 23.5998 22.4998 23.7998 22.3998 23.6998C22.2998 23.5998 22.2998 23.4998 22.2998 23.2998C22.2998 23.0998 22.2998 22.9998 22.2998 23.0998C22.2998 23.1998 21.3998 24.0998 21.1998 23.9998C21.0998 23.9998 21.0998 23.8998 21.0998 23.7998C21.0998 23.6998 21.1998 23.4998 21.1998 23.4998C20.2998 24.2998 19.2998 24.8998 18.0998 25.1998C17.8998 25.1998 17.6998 25.1998 17.4998 25.1998C17.3998 25.1998 17.3998 25.0998 17.4998 24.9998C18.4998 24.4998 19.3998 23.6998 20.0998 22.6998C20.2998 22.2998 20.2998 22.0998 20.2998 21.9998C20.0998 21.6998 19.3998 21.9998 18.8998 22.1998C18.1998 22.5998 17.4998 22.7998 16.6998 22.9998C15.4998 23.1998 14.1998 22.7998 13.3998 21.8998C12.6998 20.9998 12.3998 19.8998 12.5998 18.7998C12.9998 15.4998 16.0998 13.4998 17.1998 12.7998C18.2998 12.0998 19.3998 11.5998 20.5998 11.1998C20.8998 11.2998 20.8998 11.3998 20.6998 11.5998ZM20.3998 30.7998V26.9998C20.3998 26.6998 20.1998 26.4998 19.8998 26.4998C18.5998 26.4998 17.2998 26.2998 15.9998 26.0998C15.8998 26.0998 15.7998 26.0998 15.6998 26.1998C15.5998 26.2998 15.6998 26.3998 15.6998 26.4998C15.6998 26.5998 15.8998 27.1998 15.8998 27.1998C15.9998 27.5998 16.5998 27.6998 16.9998 27.7998L18.6998 28.1998C19.4998 28.3998 19.6998 28.9998 19.6998 29.7998V30.4998C19.6998 31.0998 19.5998 31.5998 19.1998 31.5998C18.7998 31.5998 18.1998 31.0998 17.9998 30.5998V30.3998L17.4998 29.2998C17.4998 29.1998 17.3998 29.1998 17.3998 29.0998C17.2998 29.0998 17.2998 28.9998 17.1998 28.9998H16.5998L17.3998 31.5998C17.4998 32.1998 17.7998 32.6998 18.1998 33.0998C18.8998 33.5998 19.7998 33.8998 20.5998 33.7998C21.4998 33.8998 22.2998 33.5998 22.9998 32.9998C23.3998 32.5998 23.6998 32.0998 23.7998 31.4998L24.4998 28.8998H23.9998C23.8998 28.8998 23.7998 28.8998 23.7998 28.9998C23.7998 29.0998 23.6998 29.0998 23.6998 29.1998L23.1998 30.2998V30.3998C22.9998 30.8998 22.5998 31.3998 21.9998 31.3998C21.3998 31.3998 21.4998 30.9998 21.4998 30.2998V29.5998C21.4998 28.7998 21.6998 28.0998 22.4998 27.9998L24.1998 27.5998C24.5998 27.4998 25.1998 27.3998 25.2998 26.9998C25.2998 26.9998 25.4998 26.4998 25.4998 26.2998C25.4998 26.0998 25.5998 26.0998 25.4998 25.9998C25.3998 25.8998 25.2998 25.8998 25.1998 25.8998C23.8998 26.1998 22.5998 26.2998 21.2998 26.2998C20.9998 26.2998 20.7998 26.4998 20.7998 26.7998V30.6998C20.7998 30.7998 20.6998 30.8998 20.6998 30.8998C20.5998 30.8998 20.4998 30.8998 20.3998 30.7998ZM33.4998 34.6998L33.5998 34.1998C33.5998 33.7998 33.6998 33.9998 33.6998 33.6998C33.6998 33.3998 33.7998 33.3998 33.8998 33.1998C33.9998 32.9998 33.9998 33.0998 33.9998 32.9998C33.9998 32.8998 33.9998 32.8998 34.0998 32.7998C34.1998 33.1998 33.8998 33.2998 34.0998 33.4998C34.0998 33.5998 33.9998 33.6998 33.9998 33.8998C33.9998 34.0998 33.8998 34.1998 33.7998 34.2998C33.5998 34.5998 33.5998 34.4998 33.6998 34.5998C33.8998 34.5998 33.9998 34.2998 34.0998 34.1998C34.1998 34.0998 34.2998 33.7998 34.2998 33.7998C34.3998 33.5998 34.3998 33.4998 34.4998 33.2998C34.5998 33.5998 34.2998 33.9998 34.2998 34.0998C34.2998 34.1998 34.4998 34.2998 34.4998 34.2998C34.4998 34.2998 34.4998 34.2998 34.3998 34.3998L34.0998 34.7998C33.9998 34.8998 33.6998 35.1998 33.5998 35.2998C33.7998 35.5998 34.5998 34.4998 34.8998 34.4998C34.8998 34.4998 34.8998 34.4998 34.9998 34.5998V34.6998C35.0998 34.8998 34.9998 34.9998 34.8998 35.1998C34.9998 35.2998 34.8998 35.1998 34.9998 35.1998C35.0998 35.1998 34.9998 35.2998 35.0998 35.3998C35.3998 35.3998 35.6998 35.2998 35.5998 34.8998C35.5998 34.7998 35.5998 34.7998 35.5998 34.6998C35.4998 34.4998 35.2998 34.2998 35.2998 34.0998C35.7998 33.6998 36.2998 33.5998 35.8998 33.1998C35.7998 33.0998 35.7998 33.1998 35.7998 33.0998C35.7998 32.9998 35.7998 32.8998 35.6998 32.9998C35.5998 33.0998 35.4998 33.1998 35.2998 33.2998C35.1998 33.3998 34.9998 33.5998 34.8998 33.6998C34.7998 33.6998 34.6998 33.5998 34.6998 33.4998V32.7998C34.6998 32.6998 34.5998 32.5998 34.4998 32.4998C34.2998 32.4998 34.2998 32.5998 34.1998 32.5998C34.0998 32.5998 34.1998 32.3998 34.2998 32.2998C34.3998 32.1998 34.3998 32.0998 34.4998 31.9998C34.5998 31.8998 34.4998 31.8998 34.4998 31.8998V31.7998C34.4998 31.7998 34.4998 31.4998 34.2998 31.5998L34.3998 31.6998C34.2998 31.7998 34.2998 31.7998 34.1998 31.8998C34.0998 32.1998 33.8998 32.5998 33.6998 32.8998C33.5998 32.7998 33.6998 32.8998 33.6998 32.7998V32.4998C33.7998 32.2998 33.8998 31.9998 33.8998 31.6998C33.8998 31.4998 33.9998 31.4998 33.8998 31.2998C33.7998 31.0998 33.6998 31.2998 33.5998 31.2998C33.4998 31.0998 33.8998 30.9998 33.4998 30.8998H33.2998C33.1998 30.7998 33.2998 30.6998 33.0998 30.6998C32.7998 30.8998 32.9998 31.0998 33.0998 31.2998C33.1998 31.4998 33.0998 31.3998 33.0998 31.4998C33.0998 31.5998 33.0998 31.4998 33.0998 31.6998C33.0998 31.6998 33.0998 31.6998 33.0998 31.7998C33.0998 31.8998 33.0998 31.8998 32.9998 31.8998C32.8998 31.8998 32.9998 31.7998 32.7998 31.7998C32.5998 31.7998 32.4998 32.0998 32.5998 32.1998C32.4998 32.1998 32.4998 32.2998 32.3998 32.2998V32.3998C32.2998 32.5998 32.5998 32.8998 32.6998 33.0998C32.7998 33.2998 32.7998 33.2998 32.8998 33.3998C32.9998 33.3998 33.0998 33.3998 33.1998 33.3998C33.3998 33.3998 33.3998 33.2998 33.3998 33.1998C33.3998 33.0998 33.5998 33.0998 33.4998 32.9998C33.3998 32.8998 33.3998 32.7998 33.4998 32.7998V32.8998C33.4998 33.0998 33.3998 33.2998 33.3998 33.5998C33.3998 33.7998 33.1998 34.1998 33.1998 34.2998C33.0998 34.4998 33.1998 34.6998 33.3998 34.7998C33.4998 34.6998 33.4998 34.6998 33.4998 34.6998ZM33.4998 32.3998C33.4998 32.2998 33.4998 32.1998 33.5998 32.0998C33.5998 32.1998 33.5998 32.2998 33.4998 32.3998ZM34.1998 32.8998C34.1998 32.6998 34.1998 32.6998 34.3998 32.5998C34.3998 32.6998 34.3998 32.7998 34.2998 32.8998C34.1998 32.9998 34.2998 33.0998 34.0998 33.1998V32.9998C34.1998 32.8998 34.1998 32.8998 34.1998 32.8998ZM7.1998 33.5998C7.0998 33.6998 7.0998 33.6998 6.9998 33.6998C6.8998 33.6998 6.7998 33.6998 6.6998 33.6998H6.4998C6.3998 33.6998 6.3998 33.6998 6.2998 33.6998C6.1998 33.6998 6.0998 33.8998 6.0998 34.0998C6.0998 34.2998 6.0998 34.3998 6.39981 34.4998C6.69981 34.5998 6.8998 34.6998 6.9998 34.7998C7.0998 34.8998 6.9998 34.9998 6.89981 34.8998C6.79981 34.7998 6.8998 34.8998 6.7998 34.8998C6.6998 35.0998 6.7998 34.9998 6.6998 35.1998L6.89981 35.3998C7.29981 35.1998 7.0998 34.7998 7.4998 34.8998C7.5998 34.8998 7.6998 34.8998 7.7998 34.8998C7.8998 35.1998 7.6998 35.0998 7.6998 35.3998C7.6998 35.6998 7.89981 35.7998 7.89981 35.7998C8.0998 35.7998 8.1998 35.4998 8.2998 35.3998L8.6998 34.8998C8.7998 34.7998 8.89981 34.6998 9.0998 34.3998C9.19981 34.2998 9.1998 34.1998 9.2998 34.1998C9.39981 34.0998 9.4998 33.9998 9.4998 33.8998C9.5998 33.7998 9.5998 33.6998 9.6998 33.6998C9.7998 33.6998 9.7998 33.4998 9.7998 33.3998C9.6998 33.1998 9.6998 32.9998 9.3998 32.9998C9.2998 32.9998 9.19981 32.9998 9.0998 32.9998H8.5998C8.4998 32.9998 8.39981 32.9998 8.2998 32.9998C8.2998 32.8998 8.3998 32.7998 8.4998 32.6998C8.5998 32.6998 8.5998 32.6998 8.6998 32.5998C9.0998 32.5998 8.7998 32.5998 9.1998 32.5998C9.2998 32.5998 9.3998 32.5998 9.3998 32.4998C9.4998 32.2998 9.3998 32.3998 9.3998 32.0998C9.3998 31.9998 9.3998 31.9998 9.4998 31.9998C9.5998 31.8998 9.6998 31.8998 9.7998 31.6998C9.6998 31.2998 9.4998 31.3998 9.4998 31.3998L8.9998 31.8998C8.6998 32.0998 8.19981 31.8998 7.89981 31.7998C7.5998 31.6998 7.7998 31.7998 7.6998 31.7998L7.0998 31.5998C6.9998 31.5998 6.9998 31.5998 6.89981 31.5998C6.79981 31.5998 6.7998 31.5998 6.6998 31.6998C6.6998 31.7998 6.79981 31.8998 6.89981 31.9998C7.19981 32.0998 7.5998 32.2998 7.89981 32.4998C7.89981 32.4998 7.89981 32.4998 7.89981 32.5998C7.89981 32.5998 7.6998 32.6998 7.4998 32.6998C7.2998 32.6998 7.3998 32.5998 7.1998 32.6998C6.9998 32.7998 6.9998 32.7998 6.89981 32.8998H6.7998C6.6998 32.8998 6.7998 32.8998 6.5998 32.8998C6.2998 32.8998 6.3998 32.9998 6.1998 32.9998C6.0998 32.9998 5.9998 32.9998 5.89981 32.9998C5.79981 32.9998 5.7998 32.9998 5.6998 32.9998C5.5998 32.9998 5.1998 33.1998 5.4998 33.4998C5.7998 33.7998 5.6998 33.2998 6.6998 33.2998C6.7998 33.2998 6.8998 33.2998 6.9998 33.3998C6.9998 33.3998 6.9998 33.4998 7.0998 33.4998C7.0998 33.4998 7.1998 33.4998 7.1998 33.5998ZM6.6998 34.1998H7.2998C7.3998 34.1998 7.4998 34.1998 7.4998 34.2998C7.4998 34.3998 7.4998 34.3998 7.39981 34.3998C7.19981 34.3998 6.6998 34.1998 6.6998 34.1998ZM7.6998 33.4998L7.7998 33.2998H8.1998C8.2998 33.2998 8.4998 33.2998 8.5998 33.2998C8.69981 33.2998 8.4998 33.3998 8.3998 33.3998C8.2998 33.3998 8.2998 33.4998 8.1998 33.4998C7.9998 33.4998 7.7998 33.6998 7.6998 33.4998ZM7.9998 34.9998L7.89981 34.7998V34.6998C7.89981 34.6998 7.7998 34.5998 7.7998 34.4998C7.8998 34.3998 7.8998 34.2998 7.9998 34.1998L8.0998 34.0998C8.19981 33.9998 8.1998 34.0998 8.1998 33.9998C8.1998 33.8998 8.0998 33.7998 8.1998 33.6998C8.2998 33.5998 8.2998 33.6998 8.2998 33.6998H8.6998C8.5998 33.8998 8.39981 34.1998 8.2998 34.3998C8.39981 34.3998 8.0998 34.8998 7.9998 34.9998ZM35.5998 36.4998C27.5998 44.4998 14.5998 44.4998 6.5998 36.4998C-1.4002 28.4998 -1.4002 15.4998 6.5998 7.4998C14.5998 -0.500196 27.5998 -0.500196 35.5998 7.4998C43.5998 15.4998 43.5998 28.4998 35.5998 36.4998ZM35.8998 7.1998C27.6998 -1.0002 14.3998 -1.0002 6.1998 7.1998C-2.0002 15.3998 -2.0002 28.6998 6.1998 36.8998C14.3998 45.0998 27.6998 45.0998 35.8998 36.8998C44.0998 28.6998 44.0998 15.2998 35.8998 7.1998ZM30.8998 31.8998C25.4998 37.3998 16.5998 37.3998 11.1998 31.8998C5.7998 26.3998 5.6998 17.5998 11.1998 12.1998C16.5998 6.6998 25.3998 6.5998 30.8998 11.9998C36.3998 17.3998 36.4998 26.1998 31.0998 31.6998C30.9998 31.6998 30.8998 31.7998 30.8998 31.8998ZM31.0998 11.9998C25.4998 6.4998 16.4998 6.4998 10.9998 11.9998C5.4998 17.4998 5.4998 26.5998 10.9998 32.0998C16.4998 37.5998 25.5998 37.5998 31.0998 32.0998C33.7998 29.3998 35.2998 25.7998 35.2998 22.0998C35.2998 18.1998 33.7998 14.5998 31.0998 11.9998ZM5.4998 28.7998L5.39981 28.5998C5.4998 28.5998 5.5998 28.4998 5.5998 28.3998C5.6998 28.2998 5.6998 28.2998 5.6998 28.1998C5.6998 28.0998 5.6998 27.9998 5.6998 27.9998C5.6998 27.8998 5.5998 27.8998 5.5998 27.7998C5.5998 27.6998 5.4998 27.6998 5.39981 27.6998C5.29981 27.6998 5.2998 27.6998 5.1998 27.6998C5.0998 27.6998 5.0998 27.7998 4.9998 27.7998C4.9998 27.8998 4.89981 27.8998 4.89981 27.9998C4.89981 27.9998 4.89981 28.0998 4.89981 28.2998C4.89981 28.3998 4.89981 28.5998 4.89981 28.6998C4.89981 28.7998 4.7998 28.8998 4.7998 28.8998C4.6998 28.9998 4.6998 28.9998 4.5998 29.0998C4.4998 29.0998 4.3998 29.1998 4.2998 29.0998C4.1998 29.0998 4.0998 29.0998 3.9998 28.9998C3.8998 28.8998 3.8998 28.8998 3.7998 28.7998C3.7998 28.6998 3.7998 28.5998 3.7998 28.4998C3.7998 28.3998 3.8998 28.2998 3.9998 28.1998C4.0998 28.0998 4.1998 27.9998 4.2998 27.9998L4.39981 28.1998C4.29981 28.1998 4.1998 28.2998 4.0998 28.3998C4.0998 28.4998 4.0998 28.5998 4.0998 28.6998C4.0998 28.7998 4.1998 28.8998 4.2998 28.8998C4.3998 28.8998 4.4998 28.8998 4.4998 28.8998C4.5998 28.8998 4.5998 28.7998 4.6998 28.7998C4.6998 28.6998 4.6998 28.5998 4.6998 28.3998C4.6998 28.2998 4.6998 28.1998 4.6998 27.9998C4.6998 27.8998 4.7998 27.7998 4.7998 27.6998C4.9998 27.6998 5.0998 27.5998 5.1998 27.5998C5.2998 27.5998 5.3998 27.4998 5.4998 27.4998C5.5998 27.4998 5.6998 27.4998 5.7998 27.5998C5.8998 27.6998 5.9998 27.7998 5.9998 27.8998C5.9998 27.9998 5.9998 28.0998 5.9998 28.2998C5.9998 28.3998 5.8998 28.4998 5.7998 28.5998C5.6998 28.5998 5.5998 28.6998 5.4998 28.7998ZM4.5998 27.3998C4.2998 27.4998 3.9998 27.4998 3.6998 27.3998C3.4998 27.2998 3.2998 27.1998 3.1998 26.9998C3.0998 26.8998 3.0998 26.6998 3.1998 26.5998C3.2998 26.4998 3.3998 26.2998 3.4998 26.1998C3.6998 26.0998 3.8998 25.9998 4.0998 25.9998C4.2998 25.8998 4.4998 25.8998 4.6998 25.8998C4.8998 25.8998 4.9998 25.9998 5.1998 25.9998C5.2998 26.0998 5.39981 26.1998 5.39981 26.2998C5.4998 26.3998 5.4998 26.5998 5.39981 26.6998C5.29981 26.8998 5.1998 26.9998 5.0998 27.0998C4.9998 27.2998 4.7998 27.2998 4.5998 27.3998ZM4.5998 27.1998C4.7998 27.0998 4.9998 26.9998 5.1998 26.8998C5.2998 26.7998 5.3998 26.5998 5.2998 26.4998C5.2998 26.2998 5.0998 26.1998 4.9998 26.1998C4.7998 26.0998 4.4998 26.0998 4.2998 26.1998C4.0998 26.1998 3.9998 26.2998 3.8998 26.3998C3.7998 26.4998 3.6998 26.5998 3.6998 26.6998C3.6998 26.7998 3.6998 26.8998 3.6998 26.9998C3.6998 27.0998 3.8998 27.2998 3.9998 27.2998C4.0998 27.2998 4.2998 27.2998 4.5998 27.1998ZM2.7998 24.7998V24.5998L3.9998 24.3998C4.1998 24.3998 4.3998 24.2998 4.4998 24.3998C4.5998 24.3998 4.7998 24.4998 4.7998 24.4998C4.8998 24.5998 4.9998 24.6998 4.9998 24.7998C4.9998 24.8998 4.9998 25.0998 4.9998 25.1998C4.8998 25.2998 4.7998 25.3998 4.6998 25.3998C4.4998 25.4998 4.2998 25.4998 4.0998 25.5998L2.9998 25.7998V25.5998L4.2998 25.3998C4.3998 25.3998 4.5998 25.2998 4.6998 25.2998C4.7998 25.2998 4.79981 25.1998 4.89981 25.0998C4.9998 24.8998 4.8998 24.6998 4.6998 24.5998C4.4998 24.4998 4.2998 24.4998 4.0998 24.5998L2.7998 24.7998ZM4.89981 23.3998L2.8998 23.4998V23.9998H2.5998L2.4998 22.7998H2.7998V23.2998L4.7998 23.1998L4.89981 23.3998ZM4.7998 22.3998L2.5998 22.2998V22.0998H3.4998V21.2998H2.5998V21.0998L4.7998 21.1998V21.3998H3.7998V22.1998H4.89981L4.7998 22.3998ZM4.7998 20.7998L2.5998 20.4998L2.6998 19.3998H2.9998L2.8998 20.2998L3.5998 20.3998L3.6998 19.4998L3.9998 19.6998L3.8998 20.5998L4.6998 20.6998L4.7998 19.6998H4.9998L4.7998 20.7998ZM4.9998 19.3998L2.7998 18.9998L2.9998 18.2998C2.9998 18.1998 3.0998 18.0998 3.0998 17.9998C3.1998 17.8998 3.2998 17.8998 3.2998 17.8998C3.3998 17.8998 3.4998 17.8998 3.5998 17.8998C3.6998 17.8998 3.8998 17.9998 3.9998 18.0998C4.0998 18.1998 4.0998 18.2998 4.0998 18.4998L4.1998 18.3998C4.2998 18.3998 4.3998 18.2998 4.4998 18.2998L5.1998 18.1998V18.3998L4.6998 18.4998L4.39981 18.5998C4.29981 18.5998 4.2998 18.5998 4.1998 18.6998V18.7998L4.0998 18.9998L5.0998 19.1998L4.9998 19.3998ZM3.7998 18.8998L3.8998 18.4998C3.8998 18.3998 3.8998 18.2998 3.8998 18.2998C3.8998 18.1998 3.7998 18.1998 3.7998 18.1998C3.6998 18.1998 3.6998 18.0998 3.5998 18.0998C3.4998 18.0998 3.3998 18.0998 3.2998 18.0998C3.1998 18.0998 3.1998 18.1998 3.0998 18.2998L2.9998 18.7998L3.7998 18.8998ZM5.2998 17.7998L3.0998 17.1998L3.1998 16.9998L5.1998 16.6998L3.4998 16.1998L3.5998 15.9998L5.7998 16.5998L5.6998 16.7998L3.7998 17.0998L5.4998 17.5998L5.2998 17.7998ZM4.6998 13.2998L4.7998 13.0998L5.9998 13.7998C6.1998 13.8998 6.29981 13.9998 6.39981 14.0998C6.4998 14.1998 6.5998 14.2998 6.5998 14.3998C6.5998 14.4998 6.5998 14.6998 6.5998 14.7998C6.4998 14.8998 6.4998 14.9998 6.2998 15.0998C6.1998 15.0998 6.0998 15.0998 5.89981 15.0998C5.69981 15.0998 5.4998 14.9998 5.39981 14.8998L4.1998 14.2998L4.2998 14.0998L5.4998 14.6998C5.5998 14.7998 5.79981 14.7998 5.89981 14.8998C5.9998 14.8998 6.0998 14.8998 6.0998 14.8998C6.1998 14.8998 6.1998 14.7998 6.2998 14.6998C6.3998 14.5998 6.3998 14.4998 6.2998 14.2998C6.1998 14.0998 5.9998 13.9998 5.7998 13.9998L4.6998 13.2998ZM6.9998 13.8998L5.0998 12.6998L5.1998 12.4998L7.1998 12.6998L5.6998 11.6998L5.7998 11.4998L7.6998 12.6998L7.5998 12.8998L5.5998 12.6998L7.0998 13.6998L6.9998 13.8998ZM7.89981 12.4998L6.0998 11.1998L6.1998 10.9998L7.9998 12.2998L7.89981 12.4998ZM8.4998 11.6998L6.39981 10.6998L6.4998 10.4998L7.9998 11.2998L8.2998 11.4998L8.0998 11.1998L7.1998 9.6998L7.2998 9.4998L8.5998 11.3998L8.4998 11.6998ZM9.1998 10.8998L7.6998 9.2998L8.4998 8.4998L8.6998 8.6998L7.9998 9.2998L8.4998 9.7998L9.0998 9.1998L9.2998 9.3998L8.6998 9.9998L9.1998 10.5998L9.8998 9.8998L10.0998 10.0998L9.1998 10.8998ZM10.2998 9.8998L8.8998 8.0998L9.3998 7.6998C9.4998 7.5998 9.5998 7.5998 9.6998 7.4998C9.7998 7.4998 9.8998 7.4998 9.9998 7.4998C10.0998 7.5998 10.1998 7.5998 10.2998 7.6998C10.3998 7.7998 10.4998 7.89981 10.4998 8.0998C10.4998 8.1998 10.4998 8.3998 10.3998 8.4998H10.5998C10.6998 8.4998 10.7998 8.5998 10.8998 8.5998L11.4998 8.8998L11.2998 9.0998L10.8998 8.8998L10.3998 8.6998C10.2998 8.6998 10.2998 8.6998 10.1998 8.6998H10.0998L9.9998 8.7998L9.7998 8.8998L10.3998 9.6998L10.2998 9.8998ZM9.6998 8.6998L9.9998 8.4998C10.0998 8.4998 10.0998 8.3998 10.0998 8.2998C10.0998 8.1998 10.0998 8.1998 10.0998 8.0998C10.0998 7.9998 9.9998 7.9998 9.9998 7.8998C9.9998 7.8998 9.89981 7.7998 9.7998 7.7998C9.6998 7.7998 9.5998 7.7998 9.4998 7.8998L9.1998 8.1998L9.6998 8.6998ZM11.0998 8.1998L11.1998 8.0998C11.2998 8.1998 11.2998 8.1998 11.3998 8.2998C11.4998 8.2998 11.4998 8.3998 11.5998 8.3998C11.6998 8.3998 11.7998 8.3998 11.7998 8.2998L11.8998 8.1998C11.8998 8.0998 11.8998 8.0998 11.8998 7.9998C11.9998 7.8998 11.8998 7.6998 11.7998 7.6998C11.6998 7.6998 11.6998 7.6998 11.5998 7.6998H11.3998C11.2998 7.6998 11.1998 7.6998 11.0998 7.6998C10.9998 7.6998 10.8998 7.6998 10.7998 7.6998C10.6998 7.5998 10.6998 7.5998 10.5998 7.4998C10.4998 7.3998 10.4998 7.2998 10.4998 7.1998C10.4998 7.0998 10.4998 6.9998 10.4998 6.8998C10.4998 6.7998 10.5998 6.6998 10.6998 6.6998C10.7998 6.5998 10.8998 6.5998 10.9998 6.5998C11.0998 6.5998 11.1998 6.5998 11.2998 6.6998C11.3998 6.7998 11.4998 6.8998 11.5998 6.9998L11.3998 7.0998C11.2998 6.9998 11.1998 6.8998 11.0998 6.8998C10.9998 6.8998 10.8998 6.8998 10.7998 6.9998C10.6998 6.9998 10.6998 7.0998 10.5998 7.1998C10.5998 7.2998 10.5998 7.3998 10.5998 7.3998C10.5998 7.4998 10.6998 7.4998 10.7998 7.4998C10.8998 7.4998 10.9998 7.4998 11.1998 7.4998C11.2998 7.4998 11.3998 7.3998 11.5998 7.3998C11.6998 7.3998 11.7998 7.3998 11.8998 7.4998C11.8998 7.5998 11.9998 7.5998 12.0998 7.6998C12.1998 7.7998 12.1998 7.8998 12.1998 7.9998C12.1998 8.0998 12.1998 8.1998 12.1998 8.2998C12.1998 8.3998 12.0998 8.4998 11.9998 8.4998C11.8998 8.6998 11.7998 8.6998 11.6998 8.6998C11.5998 8.6998 11.4998 8.6998 11.3998 8.5998C11.1998 8.4998 11.0998 8.3998 11.0998 8.1998ZM12.7998 7.9998L11.6998 6.0998L11.8998 5.9998L12.9998 7.9998H12.7998ZM13.6998 7.4998L12.7998 5.6998L12.2998 5.8998L12.1998 5.6998L13.2998 5.0998L13.3998 5.2998L12.9998 5.6998L13.8998 7.4998H13.6998ZM14.8998 6.8998L14.4998 5.9998L13.4998 4.9998L13.6998 4.8998L14.1998 5.3998C14.2998 5.4998 14.3998 5.5998 14.4998 5.6998C14.4998 5.5998 14.4998 5.3998 14.4998 5.2998V4.5998L14.6998 4.4998L14.5998 5.8998L14.9998 6.7998L14.8998 6.8998ZM16.5998 5.1998C16.4998 4.8998 16.4998 4.5998 16.5998 4.2998C16.6998 4.0998 16.7998 3.8998 17.0998 3.8998C17.1998 3.8998 17.3998 3.8998 17.4998 3.9998C17.5998 4.0998 17.7998 4.1998 17.8998 4.2998C17.8998 4.4998 17.9998 4.6998 18.0998 4.8998C18.0998 5.0998 18.0998 5.2998 18.0998 5.4998C18.0998 5.6998 17.9998 5.7998 17.8998 5.9998C17.7998 6.0998 17.6998 6.1998 17.5998 6.1998C17.4998 6.1998 17.2998 6.1998 17.1998 6.0998C17.0998 5.9998 16.8998 5.8998 16.7998 5.7998C16.6998 5.5998 16.5998 5.3998 16.5998 5.1998ZM16.7998 5.1998C16.7998 5.3998 16.8998 5.5998 17.0998 5.7998C17.1998 5.9998 17.4998 5.9998 17.6998 5.8998C17.7998 5.7998 17.7998 5.7998 17.8998 5.6998C17.9998 5.4998 17.9998 5.1998 17.8998 4.9998C17.8998 4.7998 17.7998 4.6998 17.6998 4.4998C17.5998 4.3998 17.4998 4.2998 17.3998 4.1998C17.2998 4.1998 17.1998 4.1998 17.0998 4.1998C16.8998 4.1998 16.7998 4.3998 16.7998 4.4998C16.7998 4.7998 16.7998 4.9998 16.7998 5.1998ZM18.5998 5.9998L18.3998 3.6998L19.3998 3.5998V3.8998L18.5998 3.9998L18.6998 4.6998L19.3998 4.5998V4.8998L18.6998 4.9998L18.7998 5.9998H18.5998ZM20.9998 5.0998H21.1998C21.1998 5.1998 21.1998 5.2998 21.2998 5.3998C21.2998 5.4998 21.3998 5.4998 21.3998 5.5998C21.4998 5.5998 21.4998 5.6998 21.5998 5.6998C21.6998 5.6998 21.6998 5.6998 21.7998 5.6998C21.8998 5.6998 21.8998 5.5998 21.9998 5.4998C21.9998 5.3998 21.9998 5.3998 21.9998 5.2998C21.9998 5.1998 21.9998 5.1998 21.9998 5.0998C21.9998 4.9998 21.8998 4.9998 21.8998 4.9998L21.5998 4.8998C21.4998 4.8998 21.3998 4.7998 21.2998 4.6998C21.1998 4.5998 21.1998 4.5998 21.0998 4.4998C21.0998 4.3998 20.9998 4.2998 21.0998 4.1998C21.0998 4.0998 21.0998 3.9998 21.1998 3.8998C21.1998 3.7998 21.2998 3.6998 21.3998 3.6998C21.4998 3.6998 21.5998 3.5998 21.6998 3.5998C21.7998 3.5998 21.8998 3.5998 21.9998 3.6998C21.9998 3.6998 22.0998 3.7998 22.1998 3.8998C22.1998 3.9998 22.2998 4.0998 22.2998 4.2998H21.9998C21.9998 4.1998 21.9998 4.0998 21.8998 3.9998C21.7998 3.8998 21.6998 3.8998 21.5998 3.8998C21.4998 3.8998 21.3998 3.8998 21.2998 3.9998C21.1998 4.0998 21.1998 4.1998 21.1998 4.1998C21.1998 4.2998 21.1998 4.2998 21.2998 4.3998C21.3998 4.4998 21.4998 4.4998 21.5998 4.5998C21.6998 4.5998 21.7998 4.6998 21.9998 4.7998C22.0998 4.8998 22.0998 4.8998 22.1998 4.9998C22.1998 5.0998 22.1998 5.1998 22.1998 5.2998C22.1998 5.3998 22.1998 5.4998 22.0998 5.5998C21.9998 5.5998 21.9998 5.6998 21.8998 5.7998C21.7998 5.8998 21.6998 5.8998 21.5998 5.8998C21.4998 5.8998 21.3998 5.8998 21.1998 5.7998C21.0998 5.6998 20.9998 5.5998 20.9998 5.4998C20.9998 5.2998 20.9998 5.1998 20.9998 5.0998ZM23.6998 5.1998L23.8998 5.2998C23.7998 5.4998 23.6998 5.6998 23.5998 5.7998C23.4998 5.8998 23.2998 5.9998 23.1998 5.8998C23.0998 5.8998 22.8998 5.7998 22.7998 5.6998C22.6998 5.5998 22.5998 5.3998 22.5998 5.1998C22.5998 4.9998 22.5998 4.7998 22.5998 4.5998C22.5998 4.3998 22.6998 4.1998 22.7998 3.9998C22.8998 3.8998 22.9998 3.6998 23.0998 3.5998C23.1998 3.6998 23.2998 3.6998 23.4998 3.6998C23.5998 3.6998 23.7998 3.7998 23.8998 3.8998C23.8998 4.0998 23.9998 4.1998 23.9998 4.3998H23.7998C23.7998 4.2998 23.7998 4.0998 23.6998 3.9998C23.5998 3.8998 23.4998 3.8998 23.4998 3.8998C23.3998 3.8998 23.2998 3.8998 23.1998 3.9998C23.0998 4.0998 22.9998 4.1998 22.9998 4.2998C22.9998 4.3998 22.8998 4.5998 22.8998 4.6998C22.8998 4.8998 22.8998 4.9998 22.8998 5.1998C22.8998 5.2998 22.9998 5.3998 22.9998 5.4998C22.9998 5.5998 23.0998 5.6998 23.1998 5.6998C23.2998 5.6998 23.3998 5.6998 23.4998 5.5998C23.5998 5.4998 23.6998 5.3998 23.6998 5.1998ZM24.0998 6.0998L24.4998 3.8998H24.6998L24.2998 6.0998H24.0998ZM24.6998 6.1998L25.2998 3.9998L26.3998 4.2998L26.2998 4.4998L25.3998 4.2998L25.1998 4.9998L25.9998 5.1998V5.4998L25.1998 5.2998L24.9998 5.9998L25.8998 6.2998L25.7998 6.4998L24.6998 6.1998ZM26.1998 6.5998L26.9998 4.4998L27.1998 4.5998L27.2998 6.4998L27.9998 4.8998L28.1998 4.9998L27.2998 7.0998L27.0998 6.9998L26.9998 4.9998L26.2998 6.6998L26.1998 6.5998ZM28.9998 6.9998L29.0998 7.1998C28.9998 7.3998 28.7998 7.4998 28.5998 7.5998C28.4998 7.6998 28.2998 7.6998 28.0998 7.5998C27.9998 7.4998 27.8998 7.3998 27.7998 7.2998C27.7998 7.0998 27.7998 6.9998 27.7998 6.7998C27.7998 6.5998 27.8998 6.3998 27.9998 6.1998C28.0998 5.9998 28.1998 5.7998 28.3998 5.6998C28.4998 5.5998 28.6998 5.4998 28.7998 5.4998C28.8998 5.4998 29.0998 5.4998 29.1998 5.4998C29.2998 5.5998 29.3998 5.6998 29.4998 5.7998C29.4998 5.9998 29.4998 6.1998 29.4998 6.2998H29.2998C29.2998 6.1998 29.2998 5.9998 29.2998 5.8998C29.2998 5.7998 29.1998 5.6998 29.0998 5.6998C28.9998 5.6998 28.8998 5.6998 28.7998 5.6998C28.6998 5.6998 28.5998 5.7998 28.4998 5.8998C28.3998 5.9998 28.2998 6.0998 28.2998 6.2998C28.1998 6.3998 28.1998 6.5998 28.0998 6.7998C28.0998 6.8998 28.0998 6.9998 28.0998 7.1998C28.0998 7.2998 28.1998 7.3998 28.2998 7.3998C28.3998 7.4998 28.4998 7.4998 28.5998 7.3998C28.7998 7.2998 28.8998 7.0998 28.9998 6.9998ZM29.0998 7.8998L30.2998 5.9998L31.2998 6.5998L31.1998 6.7998L30.3998 6.2998L29.9998 6.8998L30.6998 7.3998L30.5998 7.5998L29.8998 7.0998L29.4998 7.6998L30.2998 8.1998L30.1998 8.3998L29.0998 7.8998ZM30.9998 9.1998L32.8998 7.8998L33.0998 8.0998L32.0998 10.1998L31.8998 10.0998L32.1998 9.4998L31.6998 9.0998L31.0998 9.4998L30.9998 9.1998ZM31.9998 8.7998L32.3998 9.1998L32.6998 8.5998L32.8998 8.1998C32.7998 8.2998 32.6998 8.3998 32.5998 8.4998L31.9998 8.7998ZM32.2998 10.2998L33.7998 8.6998L33.9998 8.7998L33.2998 10.6998L34.5998 9.4998L34.6998 9.5998L33.0998 11.0998L32.8998 10.9998L33.5998 9.1998L32.2998 10.3998V10.2998ZM33.3998 11.3998L35.1998 9.9998L35.4998 10.3998C35.5998 10.4998 35.5998 10.4998 35.6998 10.5998C35.6998 10.6998 35.6998 10.7998 35.6998 10.8998C35.6998 10.9998 35.5998 11.1998 35.4998 11.2998C35.3998 11.3998 35.1998 11.4998 35.0998 11.5998C34.9998 11.6998 34.8998 11.7998 34.6998 11.7998C34.5998 11.8998 34.4998 11.8998 34.3998 11.8998C34.2998 11.8998 34.1998 11.8998 34.1998 11.8998C34.0998 11.8998 34.0998 11.8998 33.9998 11.7998C33.8998 11.7998 33.8998 11.6998 33.7998 11.5998L33.3998 11.3998ZM33.6998 11.3998L33.8998 11.6998C33.9998 11.7998 33.9998 11.7998 34.0998 11.8998C34.1998 11.8998 34.1998 11.8998 34.2998 11.8998C34.3998 11.8998 34.4998 11.8998 34.5998 11.7998C34.6998 11.6998 34.8998 11.5998 34.9998 11.5998C35.0998 11.4998 35.2998 11.3998 35.3998 11.1998C35.4998 11.0998 35.4998 10.9998 35.4998 10.8998C35.4998 10.7998 35.3998 10.6998 35.3998 10.6998L34.9998 10.3998L33.6998 11.3998ZM35.0998 13.8998L36.7998 12.8998L36.4998 12.4998L36.6998 12.3998L37.2998 13.4998L37.0998 13.5998L36.9998 13.0998L35.2998 14.0998L35.0998 13.8998ZM35.5998 14.7998L37.5998 13.8998L38.0998 14.8998L37.8998 14.9998L37.4998 14.1998L36.8998 14.4998L37.1998 15.2998L36.9998 15.3998L36.6998 14.5998L35.9998 14.8998L36.3998 15.7998H35.9998L35.5998 14.7998ZM37.2998 16.8998V17.0998C37.0998 17.1998 36.8998 17.1998 36.6998 17.0998C36.5998 16.9998 36.3998 16.8998 36.3998 16.7998C36.2998 16.6998 36.2998 16.4998 36.3998 16.3998C36.4998 16.2998 36.5998 16.0998 36.6998 15.9998C36.8998 15.8998 37.0998 15.7998 37.1998 15.6998C37.3998 15.5998 37.5998 15.5998 37.7998 15.5998C37.9998 15.5998 38.0998 15.5998 38.2998 15.6998C38.3998 15.7998 38.4998 15.8998 38.5998 15.9998C38.6998 16.0998 38.6998 16.2998 38.5998 16.3998C38.4998 16.5998 38.3998 16.6998 38.1998 16.7998L37.9998 16.5998C38.0998 16.4998 38.1998 16.4998 38.2998 16.2998C38.2998 16.1998 38.2998 16.0998 38.2998 15.9998C38.2998 15.8998 38.1998 15.7998 38.0998 15.7998C37.9998 15.7998 37.8998 15.6998 37.6998 15.6998C37.5998 15.6998 37.3998 15.7998 37.2998 15.7998C37.0998 15.8998 36.9998 15.8998 36.7998 15.9998C36.6998 16.0998 36.5998 16.1998 36.5998 16.2998C36.5998 16.3998 36.5998 16.4998 36.5998 16.5998C36.5998 16.6998 36.6998 16.7998 36.7998 16.7998C36.8998 16.8998 37.0998 16.8998 37.2998 16.8998ZM36.6998 17.6998L38.8998 17.1998V17.3998L37.9998 17.5998L38.1998 18.3998L39.0998 18.1998V18.3998L36.8998 18.8998V18.6998L37.8998 18.4998L37.6998 17.6998L36.6998 17.8998V17.6998ZM36.9998 19.1998L39.1998 18.8998V19.0998L37.4998 20.0998L39.2998 19.8998V20.0998L37.0998 20.3998V20.1998L38.7998 19.1998L36.9998 19.3998V19.1998ZM38.2998 20.6998C38.5998 20.6998 38.8998 20.6998 39.1998 20.8998C39.3998 20.9998 39.4998 21.1998 39.4998 21.3998C39.4998 21.4998 39.4998 21.6998 39.3998 21.7998C39.2998 21.8998 39.1998 21.9998 38.9998 22.0998C38.7998 22.1998 38.5998 22.1998 38.3998 22.1998C38.1998 22.1998 37.9998 22.1998 37.7998 22.0998C37.5998 22.0998 37.4998 21.9998 37.3998 21.7998C37.1998 21.5998 37.1998 21.1998 37.3998 20.9998C37.4998 20.8998 37.6998 20.7998 37.7998 20.6998C37.8998 20.6998 38.0998 20.6998 38.2998 20.6998ZM38.2998 20.8998C38.0998 20.8998 37.8998 20.9998 37.6998 21.0998C37.5998 21.1998 37.4998 21.2998 37.4998 21.4998C37.4998 21.6998 37.5998 21.7998 37.6998 21.8998C37.8998 21.9998 38.0998 21.9998 38.3998 21.9998C38.5998 21.9998 38.6998 21.9998 38.8998 21.8998C38.9998 21.8998 39.0998 21.7998 39.1998 21.6998C39.2998 21.5998 39.2998 21.4998 39.2998 21.3998C39.2998 21.1998 39.1998 21.0998 39.0998 20.9998C38.7998 20.8998 38.4998 20.8998 38.2998 20.8998ZM37.1998 22.4998L39.3998 22.6998V22.8998L37.3998 22.7998L37.2998 23.5998H36.9998L37.1998 22.4998ZM38.1998 23.7998C38.4998 23.7998 38.7998 23.8998 38.9998 24.0998C39.1998 24.1998 39.2998 24.3998 39.1998 24.6998C39.1998 24.7998 39.0998 24.9998 38.9998 25.0998C38.8998 25.1998 38.6998 25.2998 38.5998 25.2998C38.3998 25.2998 38.1998 25.2998 37.9998 25.2998C37.7998 25.2998 37.5998 25.1998 37.3998 25.0998C37.2998 24.9998 37.0998 24.8998 36.9998 24.7998C36.9998 24.6998 36.9998 24.4998 36.9998 24.3998C36.9998 24.2998 37.0998 24.0998 37.1998 23.9998C37.2998 23.8998 37.4998 23.7998 37.5998 23.7998C37.7998 23.7998 37.9998 23.7998 38.1998 23.7998ZM38.1998 23.9998C37.9998 23.9998 37.7998 23.9998 37.4998 24.0998C37.2998 24.1998 37.1998 24.2998 37.1998 24.4998C37.1998 24.6998 37.2998 24.7998 37.3998 24.8998C37.5998 24.9998 37.7998 25.0998 37.9998 25.0998C38.1998 25.0998 38.2998 25.0998 38.4998 25.0998C38.5998 25.0998 38.6998 24.9998 38.7998 24.9998C38.9998 24.8998 38.9998 24.7998 38.9998 24.6998C38.9998 24.4998 38.9998 24.3998 38.7998 24.2998C38.5998 24.0998 38.3998 24.0998 38.1998 23.9998ZM37.4998 26.3998L37.6998 26.4998L37.4998 27.0998L36.6998 26.8998C36.5998 26.7998 36.5998 26.6998 36.4998 26.4998C36.4998 26.3998 36.4998 26.2998 36.4998 26.1998C36.4998 26.0998 36.5998 25.8998 36.6998 25.7998C36.7998 25.6998 36.9998 25.5998 37.1998 25.5998C37.3998 25.5998 37.5998 25.5998 37.7998 25.6998C37.9998 25.7998 38.1998 25.7998 38.3998 25.9998C38.4998 26.0998 38.6998 26.1998 38.6998 26.3998C38.7998 26.4998 38.7998 26.6998 38.6998 26.7998C38.6998 26.8998 38.5998 26.9998 38.4998 27.0998C38.3998 27.1998 38.2998 27.1998 38.1998 27.1998C38.0998 27.1998 37.8998 27.1998 37.7998 27.1998V26.9998C37.8998 26.9998 37.9998 26.9998 38.0998 26.9998C38.1998 26.9998 38.1998 26.9998 38.2998 26.8998C38.3998 26.7998 38.3998 26.7998 38.3998 26.6998C38.3998 26.5998 38.3998 26.4998 38.3998 26.4998C38.3998 26.3998 38.2998 26.3998 38.2998 26.2998C38.1998 26.1998 38.1998 26.1998 38.0998 26.1998C37.9998 26.0998 37.7998 26.0998 37.6998 25.9998C37.4998 25.8998 37.3998 25.8998 37.1998 25.8998C37.0998 25.8998 36.9998 25.8998 36.8998 25.9998C36.7998 26.0998 36.7998 26.0998 36.6998 26.1998C36.6998 26.2998 36.6998 26.3998 36.6998 26.4998C36.6998 26.5998 36.7998 26.6998 36.7998 26.6998L37.1998 26.7998L37.4998 26.3998ZM36.1998 27.4998L37.0998 27.8998L38.4998 27.7998L38.3998 27.9998H37.6998H37.2998C37.3998 28.0998 37.4998 28.1998 37.5998 28.2998L38.0998 28.7998L37.9998 29.0998L36.9998 27.9998L36.1998 27.6998V27.4998Z" fill="black"/>
<path d="M54 7.19995V36.7999" stroke="black" stroke-width="0.43" stroke-miterlimit="22.93"/>
<path d="M108.5 9.89995C108.8 9.99995 109.1 10.2 109.4 10.4C109.6 10.5 109.8 10.8 109.8 11C109.8 11.2 109.7 11.4 109.6 11.5C109.3 11.7 109 11.7 108.7 11.7C108.1 11.7 107.6 11.6 107 11.3V12.5C107.6 12.7 108.2 12.8 108.8 12.8C109.4 12.8 110 12.7 110.6 12.4C111.1 12.1 111.3 11.5 111.3 10.9C111.3 10.5 111.1 9.99995 110.8 9.69995C110.5 9.39995 110.1 9.09995 109.6 8.89995C109.3 8.79995 109 8.59995 108.8 8.39995C108.6 8.29995 108.5 8.09995 108.5 7.79995C108.5 7.29995 108.8 7.09995 109.6 7.09995C110.1 7.09995 110.6 7.19995 111 7.39995H111.1V6.39995C110.6 6.29995 110.1 6.19995 109.6 6.19995C109 6.19995 108.4 6.29995 107.9 6.59995C107.5 6.89995 107.2 7.49995 107.3 7.99995C107 8.79995 107.5 9.49995 108.5 9.89995Z" fill="black"/>
<path d="M116.799 12.6V11.4C116.399 11.5 115.999 11.6 115.599 11.6C114.999 11.7 114.499 11.5 114.099 11.1C113.799 10.6 113.599 10.1 113.699 9.49995C113.599 8.89995 113.799 8.29995 114.199 7.79995C114.599 7.39995 115.099 7.19995 115.699 7.29995C116.099 7.29995 116.499 7.39995 116.899 7.49995H116.999V6.39995C116.599 6.29995 116.199 6.19995 115.799 6.19995C113.599 6.19995 112.499 7.29995 112.499 9.59995C112.399 10.5 112.699 11.4 113.299 12.1C113.999 12.7 114.899 12.9 115.799 12.9C115.999 12.8 116.399 12.8 116.799 12.6Z" fill="black"/>
<path d="M122.1 8.8998H119.6V6.2998H118.2V12.6998H119.6V9.9998H122.1V12.6998H123.4V6.2998H122.1V8.8998Z" fill="black"/>
<path d="M130 11.9999C130.6 11.2999 130.8 10.3999 130.8 9.49988C130.9 8.59988 130.6 7.79988 130.1 7.09988C129.5 6.49988 128.8 6.19988 127.9 6.19988C127.1 6.09988 126.2 6.49988 125.7 7.09988C125.1 7.79988 124.8 8.69988 124.9 9.59988C124.8 10.4999 125.1 11.2999 125.7 11.9999C126.3 12.5999 127.1 12.8999 127.9 12.8999C128.6 12.8999 129.4 12.5999 130 11.9999ZM129.4 9.49988C129.5 10.0999 129.3 10.7999 128.9 11.2999C128.6 11.5999 128.2 11.6999 127.8 11.6999C126.7 11.6999 126.2 10.9999 126.2 9.49988C126.2 8.89988 126.3 8.39988 126.6 7.89988C126.9 7.49988 127.4 7.29988 127.9 7.29988C128.4 7.29988 128.8 7.49988 129.1 7.89988C129.3 8.39988 129.5 8.89988 129.4 9.49988Z" fill="black"/>
<path d="M137.1 11.9999C137.7 11.2999 137.9 10.3999 137.9 9.49988C138 8.59988 137.7 7.79988 137.2 7.09988C136.7 6.49988 135.9 6.19988 135.1 6.19988C134.3 6.09988 133.4 6.49988 132.9 7.09988C132.3 7.79988 132 8.69988 132.1 9.59988C132 10.4999 132.3 11.2999 132.9 11.9999C133.5 12.5999 134.3 12.8999 135.1 12.8999C135.7 12.8999 136.5 12.4999 137.1 11.9999ZM133.7 7.89988C134 7.49988 134.5 7.29988 135 7.29988C135.5 7.29988 135.9 7.49988 136.2 7.89988C136.5 8.39988 136.6 8.99988 136.6 9.49988C136.7 10.0999 136.5 10.7999 136.1 11.2999C135.8 11.5999 135.4 11.6999 135 11.6999C133.9 11.6999 133.4 10.9999 133.4 9.49988C133.2 8.89988 133.4 8.39988 133.7 7.89988Z" fill="black"/>
<path d="M140.6 6.2998H139.3V12.6998H143V11.5998H140.6V6.2998Z" fill="black"/>
<path d="M148.8 6.19988C148 6.09988 147.1 6.49988 146.6 7.09988C146 7.79988 145.7 8.69988 145.8 9.59988C145.8 10.4999 146 11.2999 146.6 11.9999C147.2 12.5999 148 12.8999 148.8 12.8999C149.6 12.9999 150.4 12.5999 151 11.9999C151.6 11.2999 151.9 10.3999 151.8 9.49988C151.9 8.59988 151.6 7.79988 151.1 7.09988C150.4 6.49988 149.6 6.09988 148.8 6.19988ZM147.5 7.89988C147.8 7.49988 148.3 7.29988 148.7 7.29988C149.2 7.29988 149.6 7.49988 149.9 7.89988C150.2 8.39988 150.3 8.99988 150.3 9.49988C150.4 10.0999 150.2 10.7999 149.8 11.2999C149.5 11.5999 149.1 11.6999 148.7 11.6999C147.6 11.6999 147.1 10.9999 147.1 9.49988C147 8.89988 147.2 8.39988 147.5 7.89988Z" fill="black"/>
<path d="M156.7 7.3998V6.2998H153.1V12.6998H154.4V10.0998H156.5V9.0998H154.4V7.3998H156.7Z" fill="black"/>
<path d="M109.3 18.1999H107V24.5999H109.4C110.2 24.6999 111 24.3999 111.6 23.8999C112.1 23.1999 112.3 22.2999 112.2 21.3999C112.3 20.5999 112.1 19.6999 111.6 18.9999C111 18.3999 110.2 18.0999 109.3 18.1999ZM110.8 21.3999C110.9 21.9999 110.7 22.5999 110.5 23.0999C110.2 23.3999 109.8 23.5999 109.3 23.4999H108.3V19.2999H109.3C109.7 19.2999 110.1 19.3999 110.4 19.5999C110.7 20.1999 110.8 20.7999 110.8 21.3999Z" fill="black"/>
<path d="M114.9 21.9H117V20.9H114.9V19.3H117.2V18.2H113.6V24.6H117.3V23.5H114.9V21.9Z" fill="black"/>
<path d="M120.9 20.8999C120.6 20.7999 120.3 20.5999 120.1 20.3999C119.9 20.2999 119.8 20.0999 119.8 19.7999C119.8 19.2999 120.1 19.0999 120.9 19.0999C121.4 19.0999 121.9 19.1999 122.3 19.3999H122.4V18.2999C121.9 18.1999 121.4 18.0999 120.9 18.0999C120.3 18.0999 119.7 18.1999 119.2 18.4999C118.7 18.7999 118.5 19.3999 118.5 19.8999C118.5 20.6999 119 21.2999 120 21.7999C120.3 21.8999 120.7 22.0999 121 22.2999C121.2 22.3999 121.4 22.6999 121.4 22.8999C121.4 23.0999 121.3 23.2999 121.2 23.3999C120.9 23.4999 120.6 23.5999 120.3 23.5999C119.7 23.5999 119.2 23.4999 118.6 23.1999H118.5V24.3999C119.1 24.5999 119.7 24.6999 120.3 24.6999C120.9 24.6999 121.5 24.5999 122.1 24.2999C122.6 23.9999 122.8 23.3999 122.8 22.7999C122.8 22.2999 122.6 21.8999 122.3 21.5999C121.8 21.3999 121.4 21.0999 120.9 20.8999Z" fill="black"/>
<path d="M125.3 18.2H124V24.6H125.3V18.2Z" fill="black"/>
<path d="M129.4 21.9998H130.7V22.9998C130.7 23.1998 130.6 23.2998 130.5 23.3998C130.2 23.4998 130 23.5998 129.7 23.4998C129.2 23.4998 128.8 23.3998 128.5 22.9998C128.2 22.4998 128.1 21.8998 128.1 21.2998C128.1 20.6998 128.2 20.0998 128.5 19.5998C128.8 19.1998 129.3 19.0998 129.8 19.0998C130.4 19.0998 131 19.1998 131.5 19.4998H131.6V18.3998C131 18.1998 130.4 18.0998 129.8 18.0998C128.9 17.9998 128.1 18.2998 127.5 18.9998C127 19.6998 126.7 20.5998 126.7 21.4998C126.6 22.3998 126.9 23.2998 127.4 23.9998C128 24.5998 128.8 24.8998 129.7 24.7998C130.3 24.7998 130.9 24.6998 131.4 24.3998C131.8 24.0998 132 23.5998 132 23.0998V20.9998H129.5L129.4 21.9998Z" fill="black"/>
<path d="M137.499 22C137.499 22.2 137.499 22.4 137.499 22.5C137.399 22.4 137.399 22.3 137.299 22.2L134.799 18.2H133.399V24.7H134.699V20.9C134.699 20.7 134.699 20.5 134.699 20.3C134.699 20.4 134.799 20.5 134.799 20.6L137.399 24.7H138.799V18.3H137.499V22Z" fill="black"/>
<path d="M86.1994 1.39985L97.8994 8.09985C99.5994 8.99985 100.599 10.7999 100.599 12.7999V31.1999C100.599 33.0999 99.5994 34.8999 97.8994 35.8999L86.1994 42.5999C84.4994 43.5999 82.4994 43.5999 80.7994 42.5999L69.0994 35.8999C67.3994 34.8999 66.3994 33.1999 66.3994 31.1999V12.7999C66.3994 10.8999 67.3994 9.09985 69.0994 8.09985L80.7994 1.39985C82.4994 0.499853 84.4994 0.499853 86.1994 1.39985ZM81.7994 3.19985L70.1994 9.89985C69.1994 10.4999 68.4994 11.5999 68.4994 12.7999V31.1999C68.4994 32.3999 69.0994 33.4999 70.1994 34.0999L81.8994 40.7999C82.8994 41.3998 84.1994 41.3998 85.1994 40.7999L96.8994 34.0999C97.9994 33.4999 98.5994 32.3999 98.5994 31.1999V12.7999C98.5994 11.5999 97.9994 10.4999 96.8994 9.89985L85.0994 3.19985C84.0994 2.59985 82.7994 2.59985 81.7994 3.19985ZM79.0994 24.7999L78.6994 24.9999C77.8994 25.2999 77.4994 25.9999 77.5994 26.7999V28.1999C77.5994 28.4999 77.7994 28.6999 78.0994 28.5999C78.1994 28.5999 78.1994 28.5999 78.2994 28.4999L81.2994 26.7999C82.0994 26.3999 82.5994 25.5999 82.4994 24.6999V20.2999C82.5994 19.3999 82.0994 18.5999 81.2994 18.1999L76.3994 15.6999C76.1994 15.5999 75.8994 15.6999 75.7994 15.8999C75.7994 15.9999 75.6994 15.9999 75.6994 16.0999V17.4999C75.5994 18.2999 75.9994 19.0999 76.7994 19.2999L79.0994 20.5999C79.3994 20.6999 79.5994 20.9999 79.4994 21.3999V24.0999C79.4994 24.3999 79.3994 24.6999 79.0994 24.7999ZM78.3994 9.79985L73.3994 12.6999C72.5994 12.9999 72.0994 13.7999 72.2994 14.5999V15.9999C72.2994 16.2999 72.4994 16.4999 72.7994 16.3999C72.8994 16.3999 72.8994 16.3999 72.9994 16.2999L79.1994 12.6999C79.4994 12.4999 79.7994 12.4999 80.0994 12.6999L83.3994 14.4999C83.5994 14.5999 83.8994 14.4999 83.9994 14.2999C83.9994 14.1999 84.0994 14.1999 84.0994 14.0999V12.7999C84.1994 11.9999 83.7994 11.1999 82.9994 10.8999L80.8994 9.69985C79.9994 9.39985 79.0994 9.39985 78.3994 9.79985ZM85.4994 26.4999C85.3994 27.2999 85.7994 28.0999 86.5994 28.3999L87.7994 29.0999C87.9994 29.1999 88.2994 29.0999 88.3994 28.8999C88.3994 28.7999 88.4994 28.7999 88.4994 28.6999V17.9999C88.5994 17.1999 88.1994 16.3999 87.3994 16.0999L86.1994 15.3999C85.9994 15.2999 85.6994 15.3999 85.5994 15.5999C85.5994 15.6999 85.4994 15.6999 85.4994 15.7999V26.4999ZM90.9994 29.2999L86.5994 31.7999C85.7994 32.0999 85.3994 32.8999 85.4994 33.6999V35.0999C85.4994 35.3999 85.6994 35.5998 85.9994 35.4999C86.0994 35.4999 86.0994 35.4999 86.1994 35.3999L93.1994 31.3999C93.9994 30.9999 94.4994 30.1999 94.3994 29.2999V14.6999C94.4994 13.7999 93.9994 12.9999 93.1994 12.5999L86.1994 8.59985C85.9994 8.49985 85.6994 8.59985 85.5994 8.79985C85.5994 8.89985 85.5994 8.89985 85.5994 8.99985V10.2999C85.4994 11.0999 85.8994 11.8999 86.6994 12.0999L90.9994 14.6999C91.2994 14.7999 91.4994 15.0999 91.3994 15.4999V28.5999C91.4994 28.7999 91.2994 29.0999 90.9994 29.2999ZM72.5994 22.3999C72.4994 21.5999 72.8994 20.7999 73.6994 20.4999L74.8994 19.7999C75.0994 19.6999 75.3994 19.7999 75.4994 19.9999C75.4994 20.0999 75.4994 20.0999 75.4994 20.1999V28.4999C75.4994 28.7999 75.6994 29.0999 75.8994 29.2999L80.2994 31.7999C81.0994 32.0999 81.4994 32.8999 81.3994 33.6999V35.0999C81.3994 35.3999 81.1994 35.5998 80.8994 35.4999C80.7994 35.4999 80.7994 35.4999 80.6994 35.3999L73.6994 31.3999C72.8994 30.9999 72.3994 30.1999 72.4994 29.2999L72.5994 22.3999Z" fill="black"/>
<path d="M128.9 36.5999C128.9 36.8999 128.8 36.9999 128.5 36.9999H127.6L127.7 37.8999H129C129.7 37.8999 129.9 37.5999 129.9 36.9999V30.1999L128.9 30.0999V36.5999Z" fill="black"/>
<path d="M128.3 35.8999V30.7999L127.3 30.6999V32.1999C126.7 31.6999 126.2 31.1999 125.6 30.5999L125.8 30.2999L124.9 29.8999C124.2 30.8999 123.4 31.8999 122.5 32.6999L123.2 33.3999L123.4 33.2999V36.6999C123.4 37.3999 123.7 37.6999 124.5 37.6999H126.3C126.8 37.6999 127.2 37.3999 127.2 36.9999V36.8999V35.9999L126.2 35.7999V36.3999C126.2 36.5999 126.1 36.7999 125.9 36.7999H124.8C124.5 36.7999 124.5 36.6999 124.5 36.3999V33.7999H125.8V34.5999C125.8 34.8999 125.7 34.8999 125.5 34.8999H125L125.1 35.6999H125.8C126.6 35.6999 126.7 35.4999 126.7 34.8999V32.9999L125.9 32.6999C125.8 32.7999 125.6 32.8999 125.4 32.8999H124C124.5 32.3999 124.9 31.9999 125.3 31.3999C125.8 31.9999 126.3 32.4999 126.9 33.0999L127.5 32.4999V35.9999H128.3V35.8999Z" fill="black"/>
<path d="M166.1 35.1C166.1 34.4 165.9 33.7999 165.5 33.2999L166 31.4V30.5L165.1 30.2C164.9 30.3 164.7 30.4 164.5 30.4H163.5V37.9H164.4V35.7999L164.5 36.5H165C166 36.4 166.1 35.8 166.1 35.1ZM164.9 35.5H164.6V31.4H165.2L164.7 33.5C165.1 34 165.3 34.6 165.3 35.2C165.2 35.4 165.1 35.5 164.9 35.5Z" fill="black"/>
<path d="M170.1 35.6998V36.6998C170.1 36.7998 170.1 36.8998 169.9 36.8998H169.6C169.5 36.8998 169.5 36.7998 169.5 36.6998V34.8998H170.6V33.9998H166.2V34.8998H167V34.9998C167 35.9998 166.4 36.8998 165.5 37.2998L166.2 37.9998C167.3 37.4998 168 36.2998 168 35.0998V34.8998H168.6V36.8998C168.6 37.4998 168.9 37.6998 169.5 37.6998H170.2C170.7 37.6998 171 37.4998 171 36.8998V35.7998L170.1 35.6998Z" fill="black"/>
<path d="M156.5 32.4998H161.5V33.4998H162.5V31.6998L161.6 31.3998C161.5 31.4998 161.3 31.5998 161.2 31.5998C161.4 31.1998 161.7 30.8998 161.9 30.4998L160.9 29.9998C160.6 30.4998 160.3 30.9998 159.9 31.5998H159.3L159.7 31.3998C159.4 30.8998 159.1 30.3998 158.8 29.9998L157.9 30.3998C158.1 30.7998 158.3 31.1998 158.6 31.5998H157.5L157.8 31.3998C157.5 30.8998 157.2 30.3998 156.9 29.9998L156 30.4998C156.2 30.8998 156.4 31.2998 156.7 31.5998H155.5V33.4998H156.5V32.4998Z" fill="black"/>
<path d="M145.9 34.3998V33.5998L144.9 33.2998C144.8 33.3998 144.6 33.4998 144.4 33.4998H142C142.7 33.0998 143.1 32.3998 143.1 31.5998V31.2998H144.3V32.2998C144.3 32.9998 144.6 33.1998 145.3 33.1998H146.2L146.3 32.2998H145.5C145.3 32.2998 145.3 32.1998 145.3 32.0998V30.5998L144.3 30.2998C144.1 30.3998 143.9 30.4998 143.7 30.4998H142.1V31.3998C142.1 32.0998 141.8 32.6998 141.2 32.9998L141.8 33.5998H141.5V34.4998H142.3L141.7 34.7998C142 35.3998 142.4 35.8998 142.9 36.2998C142.3 36.6998 141.6 36.9998 141 37.1998L141.5 37.9998C142.3 37.6998 143 37.3998 143.7 36.8998C144.4 37.3998 145.2 37.7998 146 37.9998L146.5 37.0998C145.8 36.8998 145.2 36.5998 144.6 36.1998C145.2 35.7998 145.6 35.0998 145.9 34.3998ZM142.7 34.3998H144.8C144.6 34.8998 144.2 35.2998 143.8 35.6998C143.4 35.2998 143 34.8998 142.7 34.3998Z" fill="black"/>
<path d="M141.6 35.4998L141 35.8998V32.7998L140.1 32.4998C139.9 32.5998 139.7 32.6998 139.5 32.6998H139V33.6998H140V36.1998C140 36.4998 139.9 36.7998 139.6 36.9998L140.3 37.7998L142.1 36.1998L141.6 35.4998Z" fill="black"/>
<path d="M135.7 36.7C135.7 36.9 135.6 37 135.4 37H133.8C133.6 37 133.5 36.9 133.5 36.7V35.7999L132.5 35.7V36.7999C132.5 37.5999 132.7 37.7999 133.5 37.7999H135.6C136.2 37.7999 136.6 37.6 136.6 37V36.2L135.6 36L135.7 36.7Z" fill="black"/>
<path d="M130.8 37.2L131.7 37.7C132 37.2 132.3 36.6 132.6 36L131.8 35.7C131.4 36.2 131.1 36.7 130.8 37.2Z" fill="black"/>
<path d="M119.8 31.5999C120.5 31.4999 121.3 31.2999 122 31.0999L121.6 30.1999C120.7 30.4999 119.8 30.6999 118.8 30.7999V33.9999C118.8 34.7999 118.7 35.5999 118.5 36.2999C118.3 35.9999 118.1 35.5999 117.9 35.2999L117.2 35.5999V35.1999H118.5V34.2999H117.2V33.6999H118.6V32.7999H117.8C117.9 32.4999 118.1 32.1999 118.2 31.7999L117.7 31.5999H118.6V30.6999H117.2V29.9999L116.2 29.8999V30.7999H114.9V31.6999H115.7L115.2 31.8999L115.6 32.7999H114.7V33.6999H116.3V34.2999H114.9V35.1999H116.3V36.6999C116.3 36.8999 116.2 36.8999 116.1 36.8999H115.6C115.8 36.4999 116 35.9999 116.2 35.5999L115.4 35.2999C115.2 35.8999 114.9 36.4999 114.5 37.0999L115.4 37.4999L115.7 36.9999L115.8 37.8999H116.5C117.2 37.8999 117.4 37.6999 117.4 36.9999V35.8999C117.6 36.1999 117.7 36.5999 118 36.9999L118.6 36.6999C118.5 36.9999 118.3 37.3999 118.1 37.6999L119 38.0999C119.7 36.8999 120.1 35.5999 120 34.1999V33.8999H120.7V37.9999H121.7V33.8999H122.4V32.9999H120L119.8 31.5999ZM116.2 32.7999L116.6 32.5999C116.4 32.2999 116.3 31.9999 116.1 31.6999H117.3C117.2 32.0999 117 32.4999 116.8 32.7999H116.2Z" fill="black"/>
<path d="M112.699 36.5999C112.699 36.8999 112.599 36.9999 112.299 36.9999H111.399L111.499 37.8999H112.699C113.399 37.8999 113.599 37.5999 113.599 36.9999V30.1999L112.599 30.0999L112.699 36.5999Z" fill="black"/>
<path d="M112 35.8999V30.7999L111 30.6999V32.1999C110.4 31.6999 109.9 31.1999 109.4 30.5999C109.5 30.4999 109.5 30.3999 109.6 30.2999L108.7 29.8999C108 30.8999 107.2 31.8999 106.3 32.6999L107 33.3999L107.2 33.2999V36.6999C107.2 37.3999 107.5 37.6999 108.3 37.6999H110.1C110.6 37.6999 111 37.3999 111 36.9999V36.8999V35.9999L110 35.7999V36.3999C110 36.5999 109.9 36.7999 109.7 36.7999H108.5C108.2 36.7999 108.2 36.6999 108.2 36.3999V33.7999H109.5V34.5999C109.5 34.8999 109.4 34.8999 109.2 34.8999H108.6L108.7 35.6999H109.4C110.1 35.6999 110.3 35.4999 110.3 34.8999V32.9999L109.5 32.6999C109.4 32.7999 109.2 32.8999 109 32.8999H107.6C108.1 32.3999 108.5 31.9999 108.9 31.3999C109.4 31.9999 109.9 32.4999 110.5 33.0999L111.1 32.4999V35.9999H112V35.8999Z" fill="black"/>
<path d="M166.9 33.3999H170V32.5999H170.7V30.8999L169.8 30.5999C169.6 30.6999 169.4 30.7999 169.2 30.7999H168.9V29.9999L167.9 29.8999V30.7999H166.2V32.5999H166.9V33.3999ZM169.7 31.7999V32.4999H167.1V31.7999H169.7Z" fill="black"/>
<path d="M141.399 31.5999C140.899 30.9999 140.599 30.5999 140.199 30.0999L139.399 30.5999C139.799 31.1999 140.099 31.5999 140.599 32.1999L141.399 31.5999Z" fill="black"/>
<path d="M138.299 31.8998H136.499C136.599 31.7998 136.599 31.6998 136.699 31.4998L136.199 31.3998H137.799V30.6998H135.099V30.0998L133.999 29.9998V30.6998H131.299V31.4998H132.899L132.499 31.5998C132.599 31.6998 132.599 31.7998 132.699 31.9998H130.899V32.6998H138.299V31.8998ZM133.599 31.3998H135.599C135.499 31.5998 135.399 31.6998 135.299 31.8998H133.999C133.799 31.7998 133.699 31.5998 133.599 31.3998Z" fill="black"/>
<path d="M136.7 36.1C136.9 36.6 137.1 37.1 137.5 37.7L138.4 37.2999C138.1 36.6999 137.9 36.3 137.6 35.7L136.7 36.1Z" fill="black"/>
<path d="M149.3 35.8999V32.6999L148.4 32.3999C148.2 32.4999 148 32.5999 147.8 32.5999H147.2V33.5999H148.2V36.1999C148.2 36.4999 148.1 36.7999 147.8 36.9999L148.5 37.7999L150.6 35.9999L150 35.2999L149.3 35.8999Z" fill="black"/>
<path d="M152.8 30.0998L151.7 29.9998V32.6998H149.7V33.7998H151.7V37.8998H152.8V33.7998H154.7V32.6998H152.8V30.0998Z" fill="black"/>
<path d="M161.2 33.9999V33.1999L160.3 32.8999C160.2 32.9999 160 33.0999 159.8 33.0999H156.7V33.9999H159.6C159.2 34.1999 158.9 34.3999 158.5 34.5999V34.8999H155.3V35.8999H158.5V36.6999C158.5 36.8999 158.4 36.9999 158.2 36.9999H157.2L157.3 37.9999H158.5C159.3 37.9999 159.5 37.6999 159.5 37.0999V36.0999H162.5V35.0999H159.6C160.2 34.6999 160.7 34.3999 161.2 33.9999Z" fill="black"/>
<path d="M149.899 31.4998C149.399 30.8998 148.999 30.3998 148.699 29.9998L147.899 30.4998C148.299 30.9998 148.699 31.5998 149.099 32.1998L149.899 31.4998Z" fill="black"/>
<path d="M137.4 33.0998L136.5 32.7998C136.3 32.8998 136.1 32.9998 135.9 32.9998H131.7V35.5998H134.3L133.9 35.7998C134.1 36.0998 134.3 36.4998 134.5 36.7998L135.4 36.2998C135.2 35.9998 135.1 35.7998 134.9 35.4998H137.3V33.0998H137.4ZM132.7 33.6998H136.4V33.9998H132.7V33.6998ZM136.5 34.8998H132.8V34.5998H136.5V34.8998Z" fill="black"/>
</g>
<defs>
<clipPath id="clip0_955_2149">
<rect width="171" height="42.6" fill="white" transform="translate(0 0.699951)"/>
</clipPath>
</defs>
</svg>
