<svg width="171" height="43" viewBox="0 0 171 43" fill="none" xmlns="http://www.w3.org/2000/svg">
<g clip-path="url(#clip0_1109_7941)">
<path d="M12.1998 34.5999C12.1998 34.7999 12.2998 34.8999 12.3998 34.9999C12.6998 35.1999 12.9998 35.6999 13.1998 35.6999C13.3998 35.6999 13.4998 35.4999 13.4998 35.2999C13.4998 35.0999 13.3998 34.9999 13.3998 34.7999C13.3998 34.5999 13.1998 34.5999 12.9998 34.3999C12.7998 34.1999 12.4998 34.0999 12.2998 34.2999L12.1998 34.5999ZM13.9998 36.3999C13.7998 35.9999 13.4998 35.9999 13.0998 35.7999C12.8998 35.6999 12.9998 35.6999 12.8998 35.5999C12.7998 35.5999 12.6998 35.5999 12.6998 35.5999C12.1998 35.4999 11.6998 35.3999 11.2998 35.1999C10.9998 35.0999 10.5998 34.9999 10.2998 34.9999C10.1998 34.9999 10.1998 34.9999 10.0998 34.9999C9.9998 35.0999 10.0998 35.1999 10.0998 35.1999C10.3998 35.3999 10.6998 35.4999 10.9998 35.4999L11.8998 35.6999C11.9998 35.6999 11.9998 35.6999 12.1998 35.6999C12.2998 35.6999 12.3998 35.6999 12.4998 35.6999C12.1998 35.9999 12.0998 35.9999 11.9998 35.9999C11.8998 35.9999 11.7998 36.0999 11.6998 36.0999H11.1998H11.0998H10.9998C10.7998 36.0999 10.5998 36.0999 10.2998 36.0999C9.8998 36.0999 9.8998 35.8999 9.7998 36.3999C10.4998 37.0999 10.4998 36.5999 10.7998 36.7999C10.7998 36.9999 10.6998 36.8999 10.8998 37.1999C11.0998 37.4999 11.2998 37.4999 11.7998 37.3999C11.9998 37.3999 12.0998 37.2999 12.1998 37.2999C12.5998 37.0999 13.0998 37.0999 13.1998 36.6999C13.2998 36.5999 13.2998 36.5999 13.1998 36.4999C13.0998 36.3999 12.9998 36.1999 12.9998 36.0999C13.4998 36.1999 13.7998 36.8999 13.9998 36.3999ZM12.3998 36.5999L12.2998 36.6999C12.1998 36.7999 12.2998 36.6999 12.1998 36.7999C11.9998 36.7999 12.0998 36.8999 11.7998 36.8999C11.6998 36.8999 11.5998 36.8999 11.5998 36.7999C11.6998 36.5999 11.6998 36.7999 12.1998 36.7999C12.1998 36.7999 12.1998 36.6999 12.3998 36.5999C12.4998 36.5999 12.3998 36.4999 12.5998 36.4999C12.4998 36.5999 12.4998 36.5999 12.3998 36.5999ZM19.4998 37.4999C19.4998 37.3999 19.3998 37.3999 19.2998 37.3999C19.2998 37.3999 19.1998 37.3999 19.1998 37.4999C19.0998 37.6999 19.1998 37.6999 19.0998 37.7999C18.9998 37.8999 18.9998 37.9999 18.8998 37.9999C18.7998 38.0999 18.6998 38.0999 18.5998 38.1999C18.5998 37.9999 18.5998 37.7999 18.6998 37.6999C18.8998 37.3999 18.7998 37.6999 18.9998 37.2999C19.0998 37.0999 19.1998 36.8999 19.1998 36.5999C19.1998 36.4999 19.1998 36.2999 19.2998 36.1999C19.2998 35.9999 19.0998 35.5999 18.9998 35.5999C18.9998 35.7999 18.9998 35.9999 18.9998 36.2999C18.9998 36.5999 18.8998 36.6999 18.8998 36.8999C18.7998 37.1999 18.6998 37.4999 18.5998 37.7999C18.4998 37.8999 18.5998 37.8999 18.4998 37.8999C18.3998 37.6999 18.5998 37.6999 18.6998 37.4999C18.7998 37.2999 18.6998 37.1999 18.5998 37.1999C18.4998 37.1999 18.2998 37.1999 18.2998 37.2999C18.1998 37.3999 18.0998 37.4999 18.0998 37.4999C17.9998 37.5999 17.9998 37.6999 17.7998 37.6999C17.7998 37.5999 17.7998 37.4999 17.6998 37.4999C17.6998 37.3999 17.6998 37.3999 17.6998 37.2999C17.6998 37.1999 17.6998 37.1999 17.6998 37.0999C17.6998 36.9999 17.6998 36.8999 17.6998 36.7999V36.6999C17.5998 36.4999 17.3998 36.3999 17.1998 36.4999C17.1998 36.4999 17.0998 36.4999 17.0998 36.5999H16.9998H16.8998C16.6998 36.7999 16.5998 36.9999 16.4998 37.0999C16.2998 37.2999 16.1998 37.3999 15.9998 37.4999C15.8998 37.5999 15.6998 37.6999 15.6998 37.7999H15.7998C15.9998 37.7999 15.8998 37.7999 15.8998 37.7999H15.9998C16.1998 37.7999 16.3998 37.5999 16.4998 37.6999C16.1998 37.8999 16.4998 37.8999 16.0998 37.9999C15.9998 38.0999 15.9998 37.9999 15.8998 37.9999C15.6998 38.0999 15.5998 38.0999 15.3998 38.1999C15.1998 38.2999 15.0998 38.2999 14.8998 38.3999C14.6998 38.3999 14.6998 38.3999 14.5998 38.2999C14.2998 38.4999 14.4998 38.7999 14.5998 38.7999C14.8998 38.8999 15.4998 38.4999 15.7998 38.3999C15.8998 38.3999 15.9998 38.2999 16.0998 38.2999C16.2998 38.1999 16.2998 38.1999 16.3998 38.2999C16.2998 38.4999 16.1998 38.5999 15.9998 38.6999C15.8998 38.7999 15.8998 38.7999 15.7998 38.8999C15.6998 38.9999 15.6998 39.0999 15.6998 39.1999C15.7998 39.2999 15.8998 39.2999 15.9998 39.3999C16.1998 39.3999 16.1998 39.2999 16.2998 39.1999C16.3998 39.2999 16.2998 39.4999 16.3998 39.5999C16.4998 39.6999 16.6998 39.6999 16.7998 39.5999L17.1998 38.3999C17.1998 38.2999 17.1998 38.3999 17.1998 38.2999C17.2998 37.9999 17.2998 37.9999 17.5998 37.7999C17.6998 37.6999 17.7998 37.5999 17.8998 37.5999C17.8998 37.8999 17.6998 37.8999 17.6998 38.1999C17.6998 38.4999 17.3998 38.3999 17.4998 38.7999C17.6998 38.8999 17.6998 38.8999 17.7998 38.7999C17.8998 38.6999 17.9998 38.6999 18.1998 38.5999C18.1998 38.8999 18.0998 39.2999 17.9998 39.5999C17.8998 39.9999 18.0998 39.6999 17.7998 40.2999C17.5998 40.5999 17.5998 40.6999 17.7998 40.7999C17.9998 40.8999 18.1998 40.8999 18.2998 40.4999L18.3998 39.6999C18.5998 39.3999 18.6998 38.9999 18.6998 38.5999C18.6998 38.2999 18.8998 38.2999 19.1998 38.0999C19.4998 37.8999 19.6998 37.8999 19.4998 37.4999ZM18.0998 38.3999V38.2999C18.0998 38.1999 18.0998 38.1999 18.1998 38.1999C18.2998 38.1999 18.1998 38.3999 18.0998 38.3999ZM25.7998 39.0999L25.9998 38.9999C25.7998 38.9999 25.5998 38.8999 25.3998 38.8999L25.7998 38.1999C25.7998 38.0999 25.7998 38.0999 25.7998 37.9999C25.7998 37.8999 25.6998 37.7999 25.4998 37.7999L25.0998 37.9999H24.9998V37.7999C24.9998 37.6999 24.9998 37.6999 24.9998 37.5999C25.2998 37.3999 25.4998 37.2999 25.7998 37.1999C25.9998 36.9999 25.8998 36.8999 25.7998 36.7999C25.6998 36.6999 25.5998 36.7999 25.3998 36.7999L24.9998 36.9999L24.8998 36.5999C24.7998 36.4999 24.7998 36.4999 24.6998 36.4999H24.4998L24.2998 36.5999C24.1998 36.5999 24.1998 36.6999 24.1998 36.6999C24.1998 36.6999 24.1998 36.6999 24.1998 36.7999C24.1998 36.7999 24.2998 37.3999 24.2998 37.4999V37.5999V37.6999L23.9998 37.8999C23.8998 37.8999 23.8998 37.9999 23.8998 37.9999C23.8998 37.9999 23.8998 38.0999 23.9998 38.0999C24.0998 38.0999 24.1998 38.0999 24.2998 38.0999C24.2998 38.0999 24.3998 37.9999 24.3998 37.8999L24.4998 37.7999V38.0999C24.4998 38.0999 24.4998 38.0999 24.4998 38.1999C24.4998 38.3999 23.8998 38.5999 23.8998 38.5999C23.8998 38.5999 23.7998 38.5999 23.8998 38.6999C23.9998 38.7999 24.1998 38.7999 24.2998 38.8999C24.3998 38.8999 24.4998 38.9999 24.5998 38.9999C24.4998 39.0999 24.3998 39.1999 24.2998 39.1999L23.4998 39.0999H23.3998V39.1999H23.4998L23.8998 39.2999L24.2998 39.4999H23.9998L24.0998 39.5999H24.1998C24.2998 39.6999 24.3998 39.6999 24.4998 39.5999C24.5998 39.4999 24.5998 39.4999 24.6998 39.3999L24.7998 39.1999H24.9998L25.7998 39.2999V39.0999ZM24.8998 38.6999L24.7998 38.7999C24.6998 38.7999 24.5998 38.7999 24.5998 38.7999C24.5998 38.7999 24.4998 38.7999 24.4998 38.6999C24.6998 38.5999 24.8998 38.4999 25.0998 38.3999C24.9998 38.4999 24.9998 38.5999 24.8998 38.6999ZM24.8998 38.9999L24.9998 39.3999L25.0998 39.4999C25.2998 39.5999 25.4998 39.6999 25.6998 39.6999C25.7998 39.6999 25.8998 39.7999 26.0998 39.7999H26.1998C26.1998 39.7999 26.3998 39.7999 26.3998 39.6999C26.3998 39.6999 26.3998 39.4999 26.5998 39.3999C26.7998 39.2999 26.7998 39.2999 26.7998 39.1999C26.7998 38.8999 26.0998 38.9999 25.9998 38.9999L24.9998 38.8999L24.8998 38.9999ZM23.2998 38.5999C23.3998 38.3999 23.5998 38.2999 23.6998 37.9999C23.6998 38.0999 23.2998 38.2999 23.2998 38.3999C23.2998 38.2999 23.2998 38.1999 23.2998 38.0999V37.9999H23.3998H23.4998H23.5998C23.8998 37.7999 23.5998 37.6999 23.5998 37.6999C23.5998 37.6999 23.4998 37.6999 23.1998 37.6999V37.3999V37.2999C23.1998 37.2999 23.1998 37.0999 23.0998 37.0999C22.8998 36.9999 22.6998 36.9999 22.4998 37.0999C22.3998 37.1999 22.3998 37.1999 22.4998 37.2999C22.4998 37.2999 22.5998 37.8999 22.5998 37.9999C22.4998 38.0999 22.3998 38.0999 22.2998 38.1999C22.1998 38.1999 22.1998 38.2999 22.0998 38.3999C21.9998 38.3999 21.9998 38.4999 21.8998 38.4999H21.7998C21.7998 38.4999 21.8998 38.6999 21.9998 38.6999C21.9998 38.6999 21.9998 38.6999 22.0998 38.6999H22.1998C22.2998 38.5999 22.2998 38.5999 22.3998 38.4999C22.4998 38.3999 22.5998 38.3999 22.6998 38.2999C22.6998 38.2999 22.6998 38.2999 22.6998 38.3999C22.6998 38.4999 22.6998 38.6999 22.6998 38.7999L22.0998 39.3999C21.9998 39.4999 21.9998 39.4999 21.9998 39.5999C21.9998 39.6999 22.0998 39.6999 22.0998 39.7999C22.0998 39.8999 22.1998 39.8999 22.2998 39.8999C22.3998 39.8999 22.3998 39.8999 22.3998 39.7999C22.3998 39.7999 22.5998 39.3999 22.5998 39.2999C22.6998 39.3999 22.7998 39.3999 22.8998 39.4999C22.9998 39.5999 22.9998 39.6999 22.9998 39.6999C22.9998 39.7999 23.0998 39.8999 23.1998 39.8999C23.3998 39.8999 23.5998 39.5999 23.5998 39.2999C23.5998 39.1999 23.5998 39.0999 23.5998 38.9999V38.8999V38.7999L23.4998 38.1999C23.3998 38.1999 23.3998 38.2999 23.3998 38.2999C23.1998 38.5999 23.1998 38.6999 23.2998 38.5999ZM22.8998 39.5999V39.6999C22.7998 39.5999 22.6998 39.5999 22.5998 39.5999L22.7998 39.1999C22.7998 39.1999 22.8998 39.5999 22.8998 39.5999ZM31.0998 35.8999H30.9998L30.8998 35.9999C30.2998 36.6999 31.3998 36.4999 31.7998 36.4999H31.8998C32.3998 36.4999 32.3998 36.6999 32.4998 36.2999C32.5998 35.9999 32.2998 35.7999 32.1998 35.7999C31.9998 35.5999 31.9998 35.4999 31.6998 35.5999C31.5998 35.5999 31.4998 35.6999 31.3998 35.6999C31.0998 35.7999 31.1998 35.7999 31.0998 35.8999ZM30.2998 34.1999C30.3998 34.3999 30.3998 34.3999 30.4998 34.4999C30.5998 34.5999 30.3998 34.6999 30.3998 34.7999C30.3998 34.8999 30.3998 34.9999 30.1998 35.0999C29.9998 34.8999 30.0998 34.3999 29.9998 34.1999C29.7998 33.6999 29.2998 33.7999 29.2998 34.0999C29.2998 34.3999 29.5998 34.4999 29.7998 34.9999C29.8998 35.2999 29.8998 35.5999 29.7998 35.8999C29.4998 36.2999 29.1998 36.6999 28.7998 36.9999C28.2998 37.2999 28.7998 37.5999 29.0998 37.4999C29.2998 37.3999 29.3998 37.2999 29.5998 37.1999C29.7998 36.9999 30.0998 36.3999 30.2998 36.4999C30.4998 36.5999 30.2998 36.3999 30.2998 36.4999C30.2998 36.5999 30.2998 36.5999 30.2998 36.6999C30.2998 36.8999 30.1998 37.0999 30.0998 37.1999L28.9998 38.0999C28.8998 38.1999 28.7998 38.1999 28.7998 38.2999C28.7998 38.3999 28.7998 38.2999 28.8998 38.2999C28.9998 38.1999 29.1998 38.0999 29.3998 38.0999C29.7998 37.9999 30.0998 37.7999 30.1998 37.4999C30.6998 36.7999 30.4998 36.5999 30.3998 35.9999C30.3998 35.8999 30.3998 35.6999 30.3998 35.5999L30.8998 34.5999C30.9998 34.2999 31.2998 34.0999 30.8998 33.8999C30.7998 33.9999 30.6998 33.9999 30.5998 33.9999C30.4998 33.9999 30.3998 34.0999 30.2998 34.1999ZM20.6998 10.8999C20.0998 11.2999 19.4998 11.7999 19.0998 12.3999C18.8998 12.7999 18.9998 12.9999 19.6998 12.5999C20.5998 11.9999 21.4998 11.5999 22.4998 11.1999C23.5998 10.7999 24.6998 10.5999 25.7998 10.3999C25.8998 10.3999 25.8998 10.4999 25.7998 10.5999C22.8998 13.2999 22.5998 15.2999 23.3998 15.5999C23.9998 15.6999 24.4998 15.6999 24.9998 15.3999C25.5998 15.1999 26.1998 14.9999 26.7998 14.8999C28.2998 14.7999 28.9998 17.7999 27.2998 20.5999C26.2998 21.9999 25.0998 23.1999 23.6998 24.0999C23.5998 24.0999 23.5998 23.9999 23.5998 23.7999C23.5998 23.5999 24.4998 21.6999 23.7998 21.3999C23.6998 21.3999 23.3998 21.3999 23.0998 22.0999C22.7998 22.8999 22.4998 23.0999 22.3998 22.9999C22.2998 22.8999 22.2998 22.7999 22.2998 22.5999C22.2998 22.3999 22.2998 22.2999 22.2998 22.3999C22.2998 22.4999 21.3998 23.3999 21.1998 23.2999C21.0998 23.2999 21.0998 23.1999 21.0998 23.0999C21.0998 22.9999 21.1998 22.7999 21.1998 22.7999C20.2998 23.5999 19.2998 24.1999 18.0998 24.4999C17.8998 24.4999 17.6998 24.4999 17.4998 24.4999C17.3998 24.4999 17.3998 24.3999 17.4998 24.2999C18.4998 23.7999 19.3998 22.9999 20.0998 21.9999C20.2998 21.5999 20.2998 21.3999 20.2998 21.2999C20.0998 20.9999 19.3998 21.2999 18.8998 21.4999C18.1998 21.8999 17.4998 22.0999 16.6998 22.2999C15.4998 22.4999 14.1998 22.0999 13.3998 21.1999C12.6998 20.2999 12.3998 19.1999 12.5998 18.0999C12.9998 14.7999 16.0998 12.7999 17.1998 12.0999C18.2998 11.3999 19.3998 10.8999 20.5998 10.4999C20.8998 10.5999 20.8998 10.6999 20.6998 10.8999ZM20.3998 30.0999V26.2999C20.3998 25.9999 20.1998 25.7999 19.8998 25.7999C18.5998 25.7999 17.2998 25.5999 15.9998 25.3999C15.8998 25.3999 15.7998 25.3999 15.6998 25.4999C15.5998 25.5999 15.6998 25.6999 15.6998 25.7999C15.6998 25.8999 15.8998 26.4999 15.8998 26.4999C15.9998 26.8999 16.5998 26.9999 16.9998 27.0999L18.6998 27.4999C19.4998 27.6999 19.6998 28.2999 19.6998 29.0999V29.7999C19.6998 30.3999 19.5998 30.8999 19.1998 30.8999C18.7998 30.8999 18.1998 30.3999 17.9998 29.8999V29.6999L17.4998 28.5999C17.4998 28.4999 17.3998 28.4999 17.3998 28.3999C17.2998 28.3999 17.2998 28.2999 17.1998 28.2999H16.5998L17.3998 30.8999C17.4998 31.4999 17.7998 31.9999 18.1998 32.3999C18.8998 32.8999 19.7998 33.1999 20.5998 33.0999C21.4998 33.1999 22.2998 32.8999 22.9998 32.2999C23.3998 31.8999 23.6998 31.3999 23.7998 30.7999L24.4998 28.1999H23.9998C23.8998 28.1999 23.7998 28.1999 23.7998 28.2999C23.7998 28.3999 23.6998 28.3999 23.6998 28.4999L23.1998 29.5999V29.6999C22.9998 30.1999 22.5998 30.6999 21.9998 30.6999C21.3998 30.6999 21.4998 30.2999 21.4998 29.5999V28.8999C21.4998 28.0999 21.6998 27.3999 22.4998 27.2999L24.1998 26.8999C24.5998 26.7999 25.1998 26.6999 25.2998 26.2999C25.2998 26.2999 25.4998 25.7999 25.4998 25.5999C25.4998 25.3999 25.5998 25.3999 25.4998 25.2999C25.3998 25.1999 25.2998 25.1999 25.1998 25.1999C23.8998 25.4999 22.5998 25.5999 21.2998 25.5999C20.9998 25.5999 20.7998 25.7999 20.7998 26.0999V29.9999C20.7998 30.0999 20.6998 30.1999 20.6998 30.1999C20.5998 30.1999 20.4998 30.1999 20.3998 30.0999ZM33.4998 33.9999L33.5998 33.4999C33.5998 33.0999 33.6998 33.2999 33.6998 32.9999C33.6998 32.6999 33.7998 32.6999 33.8998 32.4999C33.9998 32.2999 33.9998 32.3999 33.9998 32.2999C33.9998 32.1999 33.9998 32.1999 34.0998 32.0999C34.1998 32.4999 33.8998 32.5999 34.0998 32.7999C34.0998 32.8999 33.9998 32.9999 33.9998 33.1999C33.9998 33.3999 33.8998 33.4999 33.7998 33.5999C33.5998 33.8999 33.5998 33.7999 33.6998 33.8999C33.8998 33.8999 33.9998 33.5999 34.0998 33.4999C34.1998 33.3999 34.2998 33.0999 34.2998 33.0999C34.3998 32.8999 34.3998 32.7999 34.4998 32.5999C34.5998 32.8999 34.2998 33.2999 34.2998 33.3999C34.2998 33.4999 34.4998 33.5999 34.4998 33.5999C34.4998 33.5999 34.4998 33.5999 34.3998 33.6999L34.0998 34.0999C33.9998 34.1999 33.6998 34.4999 33.5998 34.5999C33.7998 34.8999 34.5998 33.7999 34.8998 33.7999C34.8998 33.7999 34.8998 33.7999 34.9998 33.8999V33.9999C35.0998 34.1999 34.9998 34.2999 34.8998 34.4999C34.9998 34.5999 34.8998 34.4999 34.9998 34.4999C35.0998 34.4999 34.9998 34.5999 35.0998 34.6999C35.3998 34.6999 35.6998 34.5999 35.5998 34.1999C35.5998 34.0999 35.5998 34.0999 35.5998 33.9999C35.4998 33.7999 35.2998 33.5999 35.2998 33.3999C35.7998 32.9999 36.2998 32.8999 35.8998 32.4999C35.7998 32.3999 35.7998 32.4999 35.7998 32.3999C35.7998 32.2999 35.7998 32.1999 35.6998 32.2999C35.5998 32.3999 35.4998 32.4999 35.2998 32.5999C35.1998 32.6999 34.9998 32.8999 34.8998 32.9999C34.7998 32.9999 34.6998 32.8999 34.6998 32.7999V32.0999C34.6998 31.9999 34.5998 31.8999 34.4998 31.7999C34.2998 31.7999 34.2998 31.8999 34.1998 31.8999C34.0998 31.8999 34.1998 31.6999 34.2998 31.5999C34.3998 31.4999 34.3998 31.3999 34.4998 31.2999C34.5998 31.1999 34.4998 31.1999 34.4998 31.1999V31.0999C34.4998 31.0999 34.4998 30.7999 34.2998 30.8999L34.3998 30.9999C34.2998 31.0999 34.2998 31.0999 34.1998 31.1999C34.0998 31.4999 33.8998 31.8999 33.6998 32.1999C33.5998 32.0999 33.6998 32.1999 33.6998 32.0999V31.7999C33.7998 31.5999 33.8998 31.2999 33.8998 30.9999C33.8998 30.7999 33.9998 30.7999 33.8998 30.5999C33.7998 30.3999 33.6998 30.5999 33.5998 30.5999C33.4998 30.3999 33.8998 30.2999 33.4998 30.1999H33.2998C33.1998 30.0999 33.2998 29.9999 33.0998 29.9999C32.7998 30.1999 32.9998 30.3999 33.0998 30.5999C33.1998 30.7999 33.0998 30.6999 33.0998 30.7999C33.0998 30.8999 33.0998 30.7999 33.0998 30.9999C33.0998 30.9999 33.0998 30.9999 33.0998 31.0999C33.0998 31.1999 33.0998 31.1999 32.9998 31.1999C32.8998 31.1999 32.9998 31.0999 32.7998 31.0999C32.5998 31.0999 32.4998 31.3999 32.5998 31.4999C32.4998 31.4999 32.4998 31.5999 32.3998 31.5999V31.6999C32.2998 31.8999 32.5998 32.1999 32.6998 32.3999C32.7998 32.5999 32.7998 32.5999 32.8998 32.6999C32.9998 32.6999 33.0998 32.6999 33.1998 32.6999C33.3998 32.6999 33.3998 32.5999 33.3998 32.4999C33.3998 32.3999 33.5998 32.3999 33.4998 32.2999C33.3998 32.1999 33.3998 32.0999 33.4998 32.0999V32.1999C33.4998 32.3999 33.3998 32.5999 33.3998 32.8999C33.3998 33.0999 33.1998 33.4999 33.1998 33.5999C33.0998 33.7999 33.1998 33.9999 33.3998 34.0999C33.4998 33.9999 33.4998 33.9999 33.4998 33.9999ZM33.4998 31.6999C33.4998 31.5999 33.4998 31.4999 33.5998 31.3999C33.5998 31.4999 33.5998 31.5999 33.4998 31.6999ZM34.1998 32.1999C34.1998 31.9999 34.1998 31.9999 34.3998 31.8999C34.3998 31.9999 34.3998 32.0999 34.2998 32.1999C34.1998 32.2999 34.2998 32.3999 34.0998 32.4999V32.2999C34.1998 32.1999 34.1998 32.1999 34.1998 32.1999ZM7.1998 32.8999C7.0998 32.9999 7.0998 32.9999 6.9998 32.9999C6.8998 32.9999 6.7998 32.9999 6.6998 32.9999H6.4998C6.3998 32.9999 6.3998 32.9999 6.2998 32.9999C6.1998 32.9999 6.0998 33.1999 6.0998 33.3999C6.0998 33.5999 6.09981 33.6999 6.39981 33.7999C6.69981 33.8999 6.8998 33.9999 6.9998 34.0999C7.0998 34.1999 6.99981 34.2999 6.89981 34.1999C6.79981 34.0999 6.8998 34.1999 6.7998 34.1999C6.6998 34.3999 6.7998 34.2999 6.6998 34.4999L6.89981 34.6999C7.29981 34.4999 7.0998 34.0999 7.4998 34.1999C7.5998 34.1999 7.6998 34.1999 7.7998 34.1999C7.8998 34.4999 7.6998 34.3999 7.6998 34.6999C7.6998 34.9999 7.89981 35.0999 7.89981 35.0999C8.09981 35.0999 8.1998 34.7999 8.2998 34.6999L8.6998 34.1999C8.7998 34.0999 8.8998 33.9999 9.0998 33.6999C9.1998 33.5999 9.1998 33.4999 9.2998 33.4999C9.3998 33.3999 9.4998 33.2999 9.4998 33.1999C9.5998 33.0999 9.5998 32.9999 9.6998 32.9999C9.7998 32.9999 9.7998 32.7999 9.7998 32.6999C9.6998 32.4999 9.6998 32.2999 9.3998 32.2999C9.2998 32.2999 9.1998 32.2999 9.0998 32.2999H8.5998C8.4998 32.2999 8.3998 32.2999 8.2998 32.2999C8.2998 32.1999 8.3998 32.0999 8.4998 31.9999C8.5998 31.9999 8.5998 31.9999 8.6998 31.8999C9.0998 31.8999 8.7998 31.8999 9.1998 31.8999C9.2998 31.8999 9.3998 31.8999 9.3998 31.7999C9.4998 31.5999 9.3998 31.6999 9.3998 31.3999C9.3998 31.2999 9.3998 31.2999 9.4998 31.2999C9.5998 31.1999 9.6998 31.1999 9.7998 30.9999C9.6998 30.5999 9.4998 30.6999 9.4998 30.6999L8.9998 31.1999C8.6998 31.3999 8.19981 31.1999 7.89981 31.0999C7.59981 30.9999 7.7998 31.0999 7.6998 31.0999L7.0998 30.8999C6.9998 30.8999 6.99981 30.8999 6.89981 30.8999C6.79981 30.8999 6.7998 30.8999 6.6998 30.9999C6.6998 31.0999 6.79981 31.1999 6.89981 31.2999C7.19981 31.3999 7.59981 31.5999 7.89981 31.7999C7.89981 31.7999 7.89981 31.7999 7.89981 31.8999C7.89981 31.8999 7.6998 31.9999 7.4998 31.9999C7.2998 31.9999 7.3998 31.8999 7.1998 31.9999C6.9998 32.0999 6.99981 32.0999 6.89981 32.1999H6.7998C6.6998 32.1999 6.7998 32.1999 6.5998 32.1999C6.2998 32.1999 6.3998 32.2999 6.1998 32.2999C6.0998 32.2999 5.99981 32.2999 5.89981 32.2999C5.79981 32.2999 5.7998 32.2999 5.6998 32.2999C5.5998 32.2999 5.1998 32.4999 5.4998 32.7999C5.7998 33.0999 5.6998 32.5999 6.6998 32.5999C6.7998 32.5999 6.8998 32.5999 6.9998 32.6999C6.9998 32.6999 6.9998 32.7999 7.0998 32.7999C7.0998 32.7999 7.1998 32.7999 7.1998 32.8999ZM6.6998 33.4999H7.2998C7.3998 33.4999 7.4998 33.4999 7.4998 33.5999C7.4998 33.6999 7.49981 33.6999 7.39981 33.6999C7.19981 33.6999 6.6998 33.4999 6.6998 33.4999ZM7.6998 32.7999L7.7998 32.5999H8.1998C8.2998 32.5999 8.4998 32.5999 8.5998 32.5999C8.6998 32.5999 8.4998 32.6999 8.3998 32.6999C8.2998 32.6999 8.2998 32.7999 8.1998 32.7999C7.9998 32.7999 7.7998 32.9999 7.6998 32.7999ZM7.9998 34.2999L7.89981 34.0999V33.9999C7.89981 33.9999 7.7998 33.8999 7.7998 33.7999C7.8998 33.6999 7.8998 33.5999 7.9998 33.4999L8.0998 33.3999C8.1998 33.2999 8.1998 33.3999 8.1998 33.2999C8.1998 33.1999 8.0998 33.0999 8.1998 32.9999C8.2998 32.8999 8.2998 32.9999 8.2998 32.9999H8.6998C8.5998 33.1999 8.3998 33.4999 8.2998 33.6999C8.3998 33.6999 8.0998 34.1999 7.9998 34.2999ZM35.5998 35.7999C27.5998 43.7999 14.5998 43.7999 6.5998 35.7999C-1.4002 27.7999 -1.4002 14.7999 6.5998 6.79985C14.5998 -1.20015 27.5998 -1.20015 35.5998 6.79985C43.5998 14.7999 43.5998 27.7999 35.5998 35.7999ZM35.8998 6.49985C27.6998 -1.70015 14.3998 -1.70015 6.1998 6.49985C-2.0002 14.6999 -2.0002 27.9999 6.1998 36.1999C14.3998 44.3999 27.6998 44.3999 35.8998 36.1999C44.0998 27.9999 44.0998 14.5999 35.8998 6.49985ZM30.8998 31.1999C25.4998 36.6999 16.5998 36.6999 11.1998 31.1999C5.7998 25.6999 5.6998 16.8999 11.1998 11.4999C16.5998 5.99985 25.3998 5.89985 30.8998 11.2999C36.3998 16.6999 36.4998 25.4999 31.0998 30.9999C30.9998 30.9999 30.8998 31.0999 30.8998 31.1999ZM31.0998 11.2999C25.4998 5.79985 16.4998 5.79985 10.9998 11.2999C5.4998 16.7999 5.4998 25.8999 10.9998 31.3999C16.4998 36.8999 25.5998 36.8999 31.0998 31.3999C33.7998 28.6999 35.2998 25.0999 35.2998 21.3999C35.2998 17.4999 33.7998 13.8999 31.0998 11.2999ZM5.4998 28.0999L5.39981 27.8999C5.49981 27.8999 5.5998 27.7999 5.5998 27.6999C5.6998 27.5999 5.6998 27.5999 5.6998 27.4999C5.6998 27.3999 5.6998 27.2999 5.6998 27.2999C5.6998 27.1999 5.5998 27.1999 5.5998 27.0999C5.5998 26.9999 5.49981 26.9999 5.39981 26.9999C5.29981 26.9999 5.2998 26.9999 5.1998 26.9999C5.0998 26.9999 5.0998 27.0999 4.9998 27.0999C4.9998 27.1999 4.89981 27.1999 4.89981 27.2999C4.89981 27.2999 4.89981 27.3999 4.89981 27.5999C4.89981 27.6999 4.89981 27.8999 4.89981 27.9999C4.89981 28.0999 4.7998 28.1999 4.7998 28.1999C4.6998 28.2999 4.6998 28.2999 4.5998 28.3999C4.4998 28.3999 4.3998 28.4999 4.2998 28.3999C4.1998 28.3999 4.0998 28.3999 3.9998 28.2999C3.8998 28.1999 3.8998 28.1999 3.7998 28.0999C3.7998 27.9999 3.7998 27.8999 3.7998 27.7999C3.7998 27.6999 3.8998 27.5999 3.9998 27.4999C4.0998 27.3999 4.1998 27.2999 4.2998 27.2999L4.39981 27.4999C4.29981 27.4999 4.1998 27.5999 4.0998 27.6999C4.0998 27.7999 4.0998 27.8999 4.0998 27.9999C4.0998 28.0999 4.1998 28.1999 4.2998 28.1999C4.3998 28.1999 4.4998 28.1999 4.4998 28.1999C4.5998 28.1999 4.5998 28.0999 4.6998 28.0999C4.6998 27.9999 4.6998 27.8999 4.6998 27.6999C4.6998 27.5999 4.6998 27.4999 4.6998 27.2999C4.6998 27.1999 4.7998 27.0999 4.7998 26.9999C4.9998 26.9999 5.0998 26.8999 5.1998 26.8999C5.2998 26.8999 5.3998 26.7999 5.4998 26.7999C5.5998 26.7999 5.6998 26.7999 5.7998 26.8999C5.8998 26.9999 5.9998 27.0999 5.9998 27.1999C5.9998 27.2999 5.9998 27.3999 5.9998 27.5999C5.9998 27.6999 5.8998 27.7999 5.7998 27.8999C5.6998 27.8999 5.5998 27.9999 5.4998 28.0999ZM4.5998 26.6999C4.2998 26.7999 3.9998 26.7999 3.6998 26.6999C3.4998 26.5999 3.2998 26.4999 3.1998 26.2999C3.0998 26.1999 3.0998 25.9999 3.1998 25.8999C3.2998 25.7999 3.3998 25.5999 3.4998 25.4999C3.6998 25.3999 3.8998 25.2999 4.0998 25.2999C4.2998 25.1999 4.4998 25.1999 4.6998 25.1999C4.8998 25.1999 4.9998 25.2999 5.1998 25.2999C5.2998 25.3999 5.39981 25.4999 5.39981 25.5999C5.49981 25.6999 5.49981 25.8999 5.39981 25.9999C5.29981 26.1999 5.1998 26.2999 5.0998 26.3999C4.9998 26.5999 4.7998 26.5999 4.5998 26.6999ZM4.5998 26.4999C4.7998 26.3999 4.9998 26.2999 5.1998 26.1999C5.2998 26.0999 5.3998 25.8999 5.2998 25.7999C5.2998 25.5999 5.0998 25.4999 4.9998 25.4999C4.7998 25.3999 4.4998 25.3999 4.2998 25.4999C4.0998 25.4999 3.9998 25.5999 3.8998 25.6999C3.7998 25.7999 3.6998 25.8999 3.6998 25.9999C3.6998 26.0999 3.6998 26.1999 3.6998 26.2999C3.6998 26.3999 3.8998 26.5999 3.9998 26.5999C4.0998 26.5999 4.2998 26.5999 4.5998 26.4999ZM2.7998 24.0999V23.8999L3.9998 23.6999C4.1998 23.6999 4.3998 23.5999 4.4998 23.6999C4.5998 23.6999 4.7998 23.7999 4.7998 23.7999C4.8998 23.8999 4.9998 23.9999 4.9998 24.0999C4.9998 24.1999 4.9998 24.3999 4.9998 24.4999C4.8998 24.5999 4.7998 24.6999 4.6998 24.6999C4.4998 24.7999 4.2998 24.7999 4.0998 24.8999L2.9998 25.0999V24.8999L4.2998 24.6999C4.3998 24.6999 4.5998 24.5999 4.6998 24.5999C4.7998 24.5999 4.79981 24.4999 4.89981 24.3999C4.99981 24.1999 4.8998 23.9999 4.6998 23.8999C4.4998 23.7999 4.2998 23.7999 4.0998 23.8999L2.7998 24.0999ZM4.89981 22.6999L2.8998 22.7999V23.2999H2.5998L2.4998 22.0999H2.7998V22.5999L4.7998 22.4999L4.89981 22.6999ZM4.7998 21.6999L2.5998 21.5999V21.3999H3.4998V20.5999H2.5998V20.3999L4.7998 20.4999V20.6999H3.7998V21.4999H4.89981L4.7998 21.6999ZM4.7998 20.0999L2.5998 19.7999L2.6998 18.6999H2.9998L2.8998 19.5999L3.5998 19.6999L3.6998 18.7999L3.9998 18.9999L3.8998 19.8999L4.6998 19.9999L4.7998 18.9999H4.9998L4.7998 20.0999ZM4.9998 18.6999L2.7998 18.2999L2.9998 17.5999C2.9998 17.4999 3.0998 17.3999 3.0998 17.2999C3.1998 17.1999 3.2998 17.1999 3.2998 17.1999C3.3998 17.1999 3.4998 17.1999 3.5998 17.1999C3.6998 17.1999 3.8998 17.2999 3.9998 17.3999C4.0998 17.4999 4.0998 17.5999 4.0998 17.7999L4.1998 17.6999C4.2998 17.6999 4.3998 17.5999 4.4998 17.5999L5.1998 17.4999V17.6999L4.6998 17.7999L4.39981 17.8999C4.29981 17.8999 4.2998 17.8999 4.1998 17.9999V18.0999L4.0998 18.2999L5.0998 18.4999L4.9998 18.6999ZM3.7998 18.1999L3.8998 17.7999C3.8998 17.6999 3.8998 17.5999 3.8998 17.5999C3.8998 17.4999 3.7998 17.4999 3.7998 17.4999C3.6998 17.4999 3.6998 17.3999 3.5998 17.3999C3.4998 17.3999 3.3998 17.3999 3.2998 17.3999C3.1998 17.3999 3.1998 17.4999 3.0998 17.5999L2.9998 18.0999L3.7998 18.1999ZM5.2998 17.0999L3.0998 16.4999L3.1998 16.2999L5.1998 15.9999L3.4998 15.4999L3.5998 15.2999L5.7998 15.8999L5.6998 16.0999L3.7998 16.3999L5.4998 16.8999L5.2998 17.0999ZM4.6998 12.5999L4.7998 12.3999L5.9998 13.0999C6.1998 13.1999 6.29981 13.2999 6.39981 13.3999C6.49981 13.4999 6.5998 13.5999 6.5998 13.6999C6.5998 13.7999 6.5998 13.9999 6.5998 14.0999C6.4998 14.1999 6.4998 14.2999 6.2998 14.3999C6.1998 14.3999 6.09981 14.3999 5.89981 14.3999C5.69981 14.3999 5.49981 14.2999 5.39981 14.1999L4.1998 13.5999L4.2998 13.3999L5.4998 13.9999C5.5998 14.0999 5.79981 14.0999 5.89981 14.1999C5.99981 14.1999 6.0998 14.1999 6.0998 14.1999C6.1998 14.1999 6.1998 14.0999 6.2998 13.9999C6.3998 13.8999 6.3998 13.7999 6.2998 13.5999C6.1998 13.3999 5.9998 13.2999 5.7998 13.2999L4.6998 12.5999ZM6.9998 13.1999L5.0998 11.9999L5.1998 11.7999L7.1998 11.9999L5.6998 10.9999L5.7998 10.7999L7.6998 11.9999L7.5998 12.1999L5.5998 11.9999L7.0998 12.9999L6.9998 13.1999ZM7.89981 11.7999L6.0998 10.4999L6.1998 10.2999L7.9998 11.5999L7.89981 11.7999ZM8.4998 10.9999L6.39981 9.99985L6.4998 9.79985L7.9998 10.5999L8.2998 10.7999L8.0998 10.4999L7.1998 8.99985L7.2998 8.79985L8.5998 10.6999L8.4998 10.9999ZM9.1998 10.1999L7.6998 8.59985L8.4998 7.79985L8.6998 7.99985L7.9998 8.59985L8.4998 9.09985L9.0998 8.49985L9.2998 8.69985L8.6998 9.29985L9.1998 9.89985L9.8998 9.19985L10.0998 9.39985L9.1998 10.1999ZM10.2998 9.19985L8.8998 7.39985L9.3998 6.99985C9.4998 6.89985 9.5998 6.89985 9.6998 6.79985C9.7998 6.79985 9.8998 6.79985 9.9998 6.79985C10.0998 6.89985 10.1998 6.89985 10.2998 6.99985C10.3998 7.09985 10.4998 7.19985 10.4998 7.39985C10.4998 7.49985 10.4998 7.69985 10.3998 7.79985H10.5998C10.6998 7.79985 10.7998 7.89985 10.8998 7.89985L11.4998 8.19985L11.2998 8.39985L10.8998 8.19985L10.3998 7.99985C10.2998 7.99985 10.2998 7.99985 10.1998 7.99985H10.0998L9.9998 8.09985L9.7998 8.19985L10.3998 8.99985L10.2998 9.19985ZM9.6998 7.99985L9.9998 7.79985C10.0998 7.79985 10.0998 7.69985 10.0998 7.59985C10.0998 7.49985 10.0998 7.49985 10.0998 7.39985C10.0998 7.29985 9.9998 7.29985 9.9998 7.19985C9.9998 7.19985 9.8998 7.09985 9.7998 7.09985C9.6998 7.09985 9.5998 7.09985 9.4998 7.19985L9.1998 7.49985L9.6998 7.99985ZM11.0998 7.49985L11.1998 7.39985C11.2998 7.49985 11.2998 7.49985 11.3998 7.59985C11.4998 7.59985 11.4998 7.69985 11.5998 7.69985C11.6998 7.69985 11.7998 7.69985 11.7998 7.59985L11.8998 7.49985C11.8998 7.39985 11.8998 7.39985 11.8998 7.29985C11.9998 7.19985 11.8998 6.99985 11.7998 6.99985C11.6998 6.99985 11.6998 6.99985 11.5998 6.99985H11.3998C11.2998 6.99985 11.1998 6.99985 11.0998 6.99985C10.9998 6.99985 10.8998 6.99985 10.7998 6.99985C10.6998 6.89985 10.6998 6.89985 10.5998 6.79985C10.4998 6.69985 10.4998 6.59985 10.4998 6.49985C10.4998 6.39985 10.4998 6.29985 10.4998 6.19985C10.4998 6.09985 10.5998 5.99985 10.6998 5.99985C10.7998 5.89985 10.8998 5.89985 10.9998 5.89985C11.0998 5.89985 11.1998 5.89985 11.2998 5.99985C11.3998 6.09985 11.4998 6.19985 11.5998 6.29985L11.3998 6.39985C11.2998 6.29985 11.1998 6.19985 11.0998 6.19985C10.9998 6.19985 10.8998 6.19985 10.7998 6.29985C10.6998 6.29985 10.6998 6.39985 10.5998 6.49985C10.5998 6.59985 10.5998 6.69985 10.5998 6.69985C10.5998 6.79985 10.6998 6.79985 10.7998 6.79985C10.8998 6.79985 10.9998 6.79985 11.1998 6.79985C11.2998 6.79985 11.3998 6.69985 11.5998 6.69985C11.6998 6.69985 11.7998 6.69985 11.8998 6.79985C11.8998 6.89985 11.9998 6.89985 12.0998 6.99985C12.1998 7.09985 12.1998 7.19985 12.1998 7.29985C12.1998 7.39985 12.1998 7.49985 12.1998 7.59985C12.1998 7.69985 12.0998 7.79985 11.9998 7.79985C11.8998 7.99985 11.7998 7.99985 11.6998 7.99985C11.5998 7.99985 11.4998 7.99985 11.3998 7.89985C11.1998 7.79985 11.0998 7.69985 11.0998 7.49985ZM12.7998 7.29985L11.6998 5.39985L11.8998 5.29985L12.9998 7.29985H12.7998ZM13.6998 6.79985L12.7998 4.99985L12.2998 5.19985L12.1998 4.99985L13.2998 4.39985L13.3998 4.59985L12.9998 4.99985L13.8998 6.79985H13.6998ZM14.8998 6.19985L14.4998 5.29985L13.4998 4.29985L13.6998 4.19985L14.1998 4.69985C14.2998 4.79985 14.3998 4.89985 14.4998 4.99985C14.4998 4.89985 14.4998 4.69985 14.4998 4.59985V3.89985L14.6998 3.79985L14.5998 5.19985L14.9998 6.09985L14.8998 6.19985ZM16.5998 4.49985C16.4998 4.19985 16.4998 3.89985 16.5998 3.59985C16.6998 3.39985 16.7998 3.19985 17.0998 3.19985C17.1998 3.19985 17.3998 3.19985 17.4998 3.29985C17.5998 3.39985 17.7998 3.49985 17.8998 3.59985C17.8998 3.79985 17.9998 3.99985 18.0998 4.19985C18.0998 4.39985 18.0998 4.59985 18.0998 4.79985C18.0998 4.99985 17.9998 5.09985 17.8998 5.29985C17.7998 5.39985 17.6998 5.49985 17.5998 5.49985C17.4998 5.49985 17.2998 5.49985 17.1998 5.39985C17.0998 5.29985 16.8998 5.19985 16.7998 5.09985C16.6998 4.89985 16.5998 4.69985 16.5998 4.49985ZM16.7998 4.49985C16.7998 4.69985 16.8998 4.89985 17.0998 5.09985C17.1998 5.29985 17.4998 5.29985 17.6998 5.19985C17.7998 5.09985 17.7998 5.09985 17.8998 4.99985C17.9998 4.79985 17.9998 4.49985 17.8998 4.29985C17.8998 4.09985 17.7998 3.99985 17.6998 3.79985C17.5998 3.69985 17.4998 3.59985 17.3998 3.49985C17.2998 3.49985 17.1998 3.49985 17.0998 3.49985C16.8998 3.49985 16.7998 3.69985 16.7998 3.79985C16.7998 4.09985 16.7998 4.29985 16.7998 4.49985ZM18.5998 5.29985L18.3998 2.99985L19.3998 2.89985V3.19985L18.5998 3.29985L18.6998 3.99985L19.3998 3.89985V4.19985L18.6998 4.29985L18.7998 5.29985H18.5998ZM20.9998 4.39985H21.1998C21.1998 4.49985 21.1998 4.59985 21.2998 4.69985C21.2998 4.79985 21.3998 4.79985 21.3998 4.89985C21.4998 4.89985 21.4998 4.99985 21.5998 4.99985C21.6998 4.99985 21.6998 4.99985 21.7998 4.99985C21.8998 4.99985 21.8998 4.89985 21.9998 4.79985C21.9998 4.69985 21.9998 4.69985 21.9998 4.59985C21.9998 4.49985 21.9998 4.49985 21.9998 4.39985C21.9998 4.29985 21.8998 4.29985 21.8998 4.29985L21.5998 4.19985C21.4998 4.19985 21.3998 4.09985 21.2998 3.99985C21.1998 3.89985 21.1998 3.89985 21.0998 3.79985C21.0998 3.69985 20.9998 3.59985 21.0998 3.49985C21.0998 3.39985 21.0998 3.29985 21.1998 3.19985C21.1998 3.09985 21.2998 2.99985 21.3998 2.99985C21.4998 2.99985 21.5998 2.89985 21.6998 2.89985C21.7998 2.89985 21.8998 2.89985 21.9998 2.99985C21.9998 2.99985 22.0998 3.09985 22.1998 3.19985C22.1998 3.29985 22.2998 3.39985 22.2998 3.59985H21.9998C21.9998 3.49985 21.9998 3.39985 21.8998 3.29985C21.7998 3.19985 21.6998 3.19985 21.5998 3.19985C21.4998 3.19985 21.3998 3.19985 21.2998 3.29985C21.1998 3.39985 21.1998 3.49985 21.1998 3.49985C21.1998 3.59985 21.1998 3.59985 21.2998 3.69985C21.3998 3.79985 21.4998 3.79985 21.5998 3.89985C21.6998 3.89985 21.7998 3.99985 21.9998 4.09985C22.0998 4.19985 22.0998 4.19985 22.1998 4.29985C22.1998 4.39985 22.1998 4.49985 22.1998 4.59985C22.1998 4.69985 22.1998 4.79985 22.0998 4.89985C21.9998 4.89985 21.9998 4.99985 21.8998 5.09985C21.7998 5.19985 21.6998 5.19985 21.5998 5.19985C21.4998 5.19985 21.3998 5.19985 21.1998 5.09985C21.0998 4.99985 20.9998 4.89985 20.9998 4.79985C20.9998 4.59985 20.9998 4.49985 20.9998 4.39985ZM23.6998 4.49985L23.8998 4.59985C23.7998 4.79985 23.6998 4.99985 23.5998 5.09985C23.4998 5.19985 23.2998 5.29985 23.1998 5.19985C23.0998 5.19985 22.8998 5.09985 22.7998 4.99985C22.6998 4.89985 22.5998 4.69985 22.5998 4.49985C22.5998 4.29985 22.5998 4.09985 22.5998 3.89985C22.5998 3.69985 22.6998 3.49985 22.7998 3.29985C22.8998 3.19985 22.9998 2.99985 23.0998 2.89985C23.1998 2.99985 23.2998 2.99985 23.4998 2.99985C23.5998 2.99985 23.7998 3.09985 23.8998 3.19985C23.8998 3.39985 23.9998 3.49985 23.9998 3.69985H23.7998C23.7998 3.59985 23.7998 3.39985 23.6998 3.29985C23.5998 3.19985 23.4998 3.19985 23.4998 3.19985C23.3998 3.19985 23.2998 3.19985 23.1998 3.29985C23.0998 3.39985 22.9998 3.49985 22.9998 3.59985C22.9998 3.69985 22.8998 3.89985 22.8998 3.99985C22.8998 4.19985 22.8998 4.29985 22.8998 4.49985C22.8998 4.59985 22.9998 4.69985 22.9998 4.79985C22.9998 4.89985 23.0998 4.99985 23.1998 4.99985C23.2998 4.99985 23.3998 4.99985 23.4998 4.89985C23.5998 4.79985 23.6998 4.69985 23.6998 4.49985ZM24.0998 5.39985L24.4998 3.19985H24.6998L24.2998 5.39985H24.0998ZM24.6998 5.49985L25.2998 3.29985L26.3998 3.59985L26.2998 3.79985L25.3998 3.59985L25.1998 4.29985L25.9998 4.49985V4.79985L25.1998 4.59985L24.9998 5.29985L25.8998 5.59985L25.7998 5.79985L24.6998 5.49985ZM26.1998 5.89985L26.9998 3.79985L27.1998 3.89985L27.2998 5.79985L27.9998 4.19985L28.1998 4.29985L27.2998 6.39985L27.0998 6.29985L26.9998 4.29985L26.2998 5.99985L26.1998 5.89985ZM28.9998 6.29985L29.0998 6.49985C28.9998 6.69985 28.7998 6.79985 28.5998 6.89985C28.4998 6.99985 28.2998 6.99985 28.0998 6.89985C27.9998 6.79985 27.8998 6.69985 27.7998 6.59985C27.7998 6.39985 27.7998 6.29985 27.7998 6.09985C27.7998 5.89985 27.8998 5.69985 27.9998 5.49985C28.0998 5.29985 28.1998 5.09985 28.3998 4.99985C28.4998 4.89985 28.6998 4.79985 28.7998 4.79985C28.8998 4.79985 29.0998 4.79985 29.1998 4.79985C29.2998 4.89985 29.3998 4.99985 29.4998 5.09985C29.4998 5.29985 29.4998 5.49985 29.4998 5.59985H29.2998C29.2998 5.49985 29.2998 5.29985 29.2998 5.19985C29.2998 5.09985 29.1998 4.99985 29.0998 4.99985C28.9998 4.99985 28.8998 4.99985 28.7998 4.99985C28.6998 4.99985 28.5998 5.09985 28.4998 5.19985C28.3998 5.29985 28.2998 5.39985 28.2998 5.59985C28.1998 5.69985 28.1998 5.89985 28.0998 6.09985C28.0998 6.19985 28.0998 6.29985 28.0998 6.49985C28.0998 6.59985 28.1998 6.69985 28.2998 6.69985C28.3998 6.79985 28.4998 6.79985 28.5998 6.69985C28.7998 6.59985 28.8998 6.39985 28.9998 6.29985ZM29.0998 7.19985L30.2998 5.29985L31.2998 5.89985L31.1998 6.09985L30.3998 5.59985L29.9998 6.19985L30.6998 6.69985L30.5998 6.89985L29.8998 6.39985L29.4998 6.99985L30.2998 7.49985L30.1998 7.69985L29.0998 7.19985ZM30.9998 8.49985L32.8998 7.19985L33.0998 7.39985L32.0998 9.49985L31.8998 9.39985L32.1998 8.79985L31.6998 8.39985L31.0998 8.79985L30.9998 8.49985ZM31.9998 8.09985L32.3998 8.49985L32.6998 7.89985L32.8998 7.49985C32.7998 7.59985 32.6998 7.69985 32.5998 7.79985L31.9998 8.09985ZM32.2998 9.59985L33.7998 7.99985L33.9998 8.09985L33.2998 9.99985L34.5998 8.79985L34.6998 8.89985L33.0998 10.3999L32.8998 10.2999L33.5998 8.49985L32.2998 9.69985V9.59985ZM33.3998 10.6999L35.1998 9.29985L35.4998 9.69985C35.5998 9.79985 35.5998 9.79985 35.6998 9.89985C35.6998 9.99985 35.6998 10.0999 35.6998 10.1999C35.6998 10.2999 35.5998 10.4999 35.4998 10.5999C35.3998 10.6999 35.1998 10.7999 35.0998 10.8999C34.9998 10.9999 34.8998 11.0999 34.6998 11.0999C34.5998 11.1999 34.4998 11.1999 34.3998 11.1999C34.2998 11.1999 34.1998 11.1999 34.1998 11.1999C34.0998 11.1999 34.0998 11.1999 33.9998 11.0999C33.8998 11.0999 33.8998 10.9999 33.7998 10.8999L33.3998 10.6999ZM33.6998 10.6999L33.8998 10.9999C33.9998 11.0999 33.9998 11.0999 34.0998 11.1999C34.1998 11.1999 34.1998 11.1999 34.2998 11.1999C34.3998 11.1999 34.4998 11.1999 34.5998 11.0999C34.6998 10.9999 34.8998 10.8999 34.9998 10.8999C35.0998 10.7999 35.2998 10.6999 35.3998 10.4999C35.4998 10.3999 35.4998 10.2999 35.4998 10.1999C35.4998 10.0999 35.3998 9.99985 35.3998 9.99985L34.9998 9.69985L33.6998 10.6999ZM35.0998 13.1999L36.7998 12.1999L36.4998 11.7999L36.6998 11.6999L37.2998 12.7999L37.0998 12.8999L36.9998 12.3999L35.2998 13.3999L35.0998 13.1999ZM35.5998 14.0999L37.5998 13.1999L38.0998 14.1999L37.8998 14.2999L37.4998 13.4999L36.8998 13.7999L37.1998 14.5999L36.9998 14.6999L36.6998 13.8999L35.9998 14.1999L36.3998 15.0999H35.9998L35.5998 14.0999ZM37.2998 16.1999V16.3999C37.0998 16.4999 36.8998 16.4999 36.6998 16.3999C36.5998 16.2999 36.3998 16.1999 36.3998 16.0999C36.2998 15.9999 36.2998 15.7999 36.3998 15.6999C36.4998 15.5999 36.5998 15.3999 36.6998 15.2999C36.8998 15.1999 37.0998 15.0999 37.1998 14.9999C37.3998 14.8999 37.5998 14.8999 37.7998 14.8999C37.9998 14.8999 38.0998 14.8999 38.2998 14.9999C38.3998 15.0999 38.4998 15.1999 38.5998 15.2999C38.6998 15.3999 38.6998 15.5999 38.5998 15.6999C38.4998 15.8999 38.3998 15.9999 38.1998 16.0999L37.9998 15.8999C38.0998 15.7999 38.1998 15.7999 38.2998 15.5999C38.2998 15.4999 38.2998 15.3999 38.2998 15.2999C38.2998 15.1999 38.1998 15.0999 38.0998 15.0999C37.9998 15.0999 37.8998 14.9999 37.6998 14.9999C37.5998 14.9999 37.3998 15.0999 37.2998 15.0999C37.0998 15.1999 36.9998 15.1999 36.7998 15.2999C36.6998 15.3999 36.5998 15.4999 36.5998 15.5999C36.5998 15.6999 36.5998 15.7999 36.5998 15.8999C36.5998 15.9999 36.6998 16.0999 36.7998 16.0999C36.8998 16.1999 37.0998 16.1999 37.2998 16.1999ZM36.6998 16.9999L38.8998 16.4999V16.6999L37.9998 16.8999L38.1998 17.6999L39.0998 17.4999V17.6999L36.8998 18.1999V17.9999L37.8998 17.7999L37.6998 16.9999L36.6998 17.1999V16.9999ZM36.9998 18.4999L39.1998 18.1999V18.3999L37.4998 19.3999L39.2998 19.1999V19.3999L37.0998 19.6999V19.4999L38.7998 18.4999L36.9998 18.6999V18.4999ZM38.2998 19.9999C38.5998 19.9999 38.8998 19.9999 39.1998 20.1999C39.3998 20.2999 39.4998 20.4999 39.4998 20.6999C39.4998 20.7999 39.4998 20.9999 39.3998 21.0999C39.2998 21.1999 39.1998 21.2999 38.9998 21.3999C38.7998 21.4999 38.5998 21.4999 38.3998 21.4999C38.1998 21.4999 37.9998 21.4999 37.7998 21.3999C37.5998 21.3999 37.4998 21.2999 37.3998 21.0999C37.1998 20.8999 37.1998 20.4999 37.3998 20.2999C37.4998 20.1999 37.6998 20.0999 37.7998 19.9999C37.8998 19.9999 38.0998 19.9999 38.2998 19.9999ZM38.2998 20.1999C38.0998 20.1999 37.8998 20.2999 37.6998 20.3999C37.5998 20.4999 37.4998 20.5999 37.4998 20.7999C37.4998 20.9999 37.5998 21.0999 37.6998 21.1999C37.8998 21.2999 38.0998 21.2999 38.3998 21.2999C38.5998 21.2999 38.6998 21.2999 38.8998 21.1999C38.9998 21.1999 39.0998 21.0999 39.1998 20.9999C39.2998 20.8999 39.2998 20.7999 39.2998 20.6999C39.2998 20.4999 39.1998 20.3999 39.0998 20.2999C38.7998 20.1999 38.4998 20.1999 38.2998 20.1999ZM37.1998 21.7999L39.3998 21.9999V22.1999L37.3998 22.0999L37.2998 22.8999H36.9998L37.1998 21.7999ZM38.1998 23.0999C38.4998 23.0999 38.7998 23.1999 38.9998 23.3999C39.1998 23.4999 39.2998 23.6999 39.1998 23.9999C39.1998 24.0999 39.0998 24.2999 38.9998 24.3999C38.8998 24.4999 38.6998 24.5999 38.5998 24.5999C38.3998 24.5999 38.1998 24.5999 37.9998 24.5999C37.7998 24.5999 37.5998 24.4999 37.3998 24.3999C37.2998 24.2999 37.0998 24.1999 36.9998 24.0999C36.9998 23.9999 36.9998 23.7999 36.9998 23.6999C36.9998 23.5999 37.0998 23.3999 37.1998 23.2999C37.2998 23.1999 37.4998 23.0999 37.5998 23.0999C37.7998 23.0999 37.9998 23.0999 38.1998 23.0999ZM38.1998 23.2999C37.9998 23.2999 37.7998 23.2999 37.4998 23.3999C37.2998 23.4999 37.1998 23.5999 37.1998 23.7999C37.1998 23.9999 37.2998 24.0999 37.3998 24.1999C37.5998 24.2999 37.7998 24.3999 37.9998 24.3999C38.1998 24.3999 38.2998 24.3999 38.4998 24.3999C38.5998 24.3999 38.6998 24.2999 38.7998 24.2999C38.9998 24.1999 38.9998 24.0999 38.9998 23.9999C38.9998 23.7999 38.9998 23.6999 38.7998 23.5999C38.5998 23.3999 38.3998 23.3999 38.1998 23.2999ZM37.4998 25.6999L37.6998 25.7999L37.4998 26.3999L36.6998 26.1999C36.5998 26.0999 36.5998 25.9999 36.4998 25.7999C36.4998 25.6999 36.4998 25.5999 36.4998 25.4999C36.4998 25.3999 36.5998 25.1999 36.6998 25.0999C36.7998 24.9999 36.9998 24.8999 37.1998 24.8999C37.3998 24.8999 37.5998 24.8999 37.7998 24.9999C37.9998 25.0999 38.1998 25.0999 38.3998 25.2999C38.4998 25.3999 38.6998 25.4999 38.6998 25.6999C38.7998 25.7999 38.7998 25.9999 38.6998 26.0999C38.6998 26.1999 38.5998 26.2999 38.4998 26.3999C38.3998 26.4999 38.2998 26.4999 38.1998 26.4999C38.0998 26.4999 37.8998 26.4999 37.7998 26.4999V26.2999C37.8998 26.2999 37.9998 26.2999 38.0998 26.2999C38.1998 26.2999 38.1998 26.2999 38.2998 26.1999C38.3998 26.0999 38.3998 26.0999 38.3998 25.9999C38.3998 25.8999 38.3998 25.7999 38.3998 25.7999C38.3998 25.6999 38.2998 25.6999 38.2998 25.5999C38.1998 25.4999 38.1998 25.4999 38.0998 25.4999C37.9998 25.3999 37.7998 25.3999 37.6998 25.2999C37.4998 25.1999 37.3998 25.1999 37.1998 25.1999C37.0998 25.1999 36.9998 25.1999 36.8998 25.2999C36.7998 25.3999 36.7998 25.3999 36.6998 25.4999C36.6998 25.5999 36.6998 25.6999 36.6998 25.7999C36.6998 25.8999 36.7998 25.9999 36.7998 25.9999L37.1998 26.0999L37.4998 25.6999ZM36.1998 26.7999L37.0998 27.1999L38.4998 27.0999L38.3998 27.2999H37.6998H37.2998C37.3998 27.3999 37.4998 27.4999 37.5998 27.5999L38.0998 28.0999L37.9998 28.3999L36.9998 27.2999L36.1998 26.9999V26.7999Z" fill="white"/>
<path d="M54 6.5V36.1" stroke="white" stroke-width="0.43" stroke-miterlimit="22.93"/>
<path d="M108.5 9.2C108.8 9.3 109.1 9.5 109.4 9.7C109.6 9.8 109.8 10.1 109.8 10.3C109.8 10.5 109.7 10.7 109.6 10.8C109.3 11 109 11 108.7 11C108.1 11 107.6 10.9 107 10.6V11.8C107.6 12 108.2 12.1 108.8 12.1C109.4 12.1 110 12 110.6 11.7C111.1 11.4 111.3 10.8 111.3 10.2C111.3 9.8 111.1 9.3 110.8 9C110.5 8.7 110.1 8.4 109.6 8.2C109.3 8.1 109 7.9 108.8 7.7C108.6 7.6 108.5 7.4 108.5 7.1C108.5 6.6 108.8 6.4 109.6 6.4C110.1 6.4 110.6 6.5 111 6.7H111.1V5.7C110.6 5.6 110.1 5.5 109.6 5.5C109 5.5 108.4 5.6 107.9 5.9C107.5 6.2 107.2 6.8 107.3 7.3C107 8.1 107.5 8.8 108.5 9.2Z" fill="white"/>
<path d="M116.799 11.9V10.7C116.399 10.8 115.999 10.9 115.599 10.9C114.999 11 114.499 10.8 114.099 10.4C113.799 9.9 113.599 9.4 113.699 8.8C113.599 8.2 113.799 7.6 114.199 7.1C114.599 6.7 115.099 6.5 115.699 6.6C116.099 6.6 116.499 6.7 116.899 6.8H116.999V5.7C116.599 5.6 116.199 5.5 115.799 5.5C113.599 5.5 112.499 6.6 112.499 8.9C112.399 9.8 112.699 10.7 113.299 11.4C113.999 12 114.899 12.2 115.799 12.2C115.999 12.1 116.399 12.1 116.799 11.9Z" fill="white"/>
<path d="M122.1 8.19985H119.6V5.59985H118.2V11.9999H119.6V9.29985H122.1V11.9999H123.4V5.59985H122.1V8.19985Z" fill="white"/>
<path d="M130 11.2999C130.6 10.5999 130.8 9.69993 130.8 8.79993C130.9 7.89993 130.6 7.09993 130.1 6.39993C129.5 5.79993 128.8 5.49993 127.9 5.49993C127.1 5.39993 126.2 5.79993 125.7 6.39993C125.1 7.09993 124.8 7.99993 124.9 8.89993C124.8 9.79993 125.1 10.5999 125.7 11.2999C126.3 11.8999 127.1 12.1999 127.9 12.1999C128.6 12.1999 129.4 11.8999 130 11.2999ZM129.4 8.79993C129.5 9.39993 129.3 10.0999 128.9 10.5999C128.6 10.8999 128.2 10.9999 127.8 10.9999C126.7 10.9999 126.2 10.2999 126.2 8.79993C126.2 8.19993 126.3 7.69993 126.6 7.19993C126.9 6.79993 127.4 6.59993 127.9 6.59993C128.4 6.59993 128.8 6.79993 129.1 7.19993C129.3 7.69993 129.5 8.19993 129.4 8.79993Z" fill="white"/>
<path d="M137.1 11.2999C137.7 10.5999 137.9 9.69993 137.9 8.79993C138 7.89993 137.7 7.09993 137.2 6.39993C136.7 5.79993 135.9 5.49993 135.1 5.49993C134.3 5.39993 133.4 5.79993 132.9 6.39993C132.3 7.09993 132 7.99993 132.1 8.89993C132 9.79993 132.3 10.5999 132.9 11.2999C133.5 11.8999 134.3 12.1999 135.1 12.1999C135.7 12.1999 136.5 11.7999 137.1 11.2999ZM133.7 7.19993C134 6.79993 134.5 6.59993 135 6.59993C135.5 6.59993 135.9 6.79993 136.2 7.19993C136.5 7.69993 136.6 8.29993 136.6 8.79993C136.7 9.39993 136.5 10.0999 136.1 10.5999C135.8 10.8999 135.4 10.9999 135 10.9999C133.9 10.9999 133.4 10.2999 133.4 8.79993C133.2 8.19993 133.4 7.69993 133.7 7.19993Z" fill="white"/>
<path d="M140.6 5.59985H139.3V11.9999H143V10.8999H140.6V5.59985Z" fill="white"/>
<path d="M148.8 5.49993C148 5.39993 147.1 5.79993 146.6 6.39993C146 7.09993 145.7 7.99993 145.8 8.89993C145.8 9.79993 146 10.5999 146.6 11.2999C147.2 11.8999 148 12.1999 148.8 12.1999C149.6 12.2999 150.4 11.8999 151 11.2999C151.6 10.5999 151.9 9.69993 151.8 8.79993C151.9 7.89993 151.6 7.09993 151.1 6.39993C150.4 5.79993 149.6 5.39993 148.8 5.49993ZM147.5 7.19993C147.8 6.79993 148.3 6.59993 148.7 6.59993C149.2 6.59993 149.6 6.79993 149.9 7.19993C150.2 7.69993 150.3 8.29993 150.3 8.79993C150.4 9.39993 150.2 10.0999 149.8 10.5999C149.5 10.8999 149.1 10.9999 148.7 10.9999C147.6 10.9999 147.1 10.2999 147.1 8.79993C147 8.19993 147.2 7.69993 147.5 7.19993Z" fill="white"/>
<path d="M156.7 6.69985V5.59985H153.1V11.9999H154.4V9.39985H156.5V8.39985H154.4V6.69985H156.7Z" fill="white"/>
<path d="M109.3 17.4999H107V23.8999H109.4C110.2 23.9999 111 23.6999 111.6 23.1999C112.1 22.4999 112.3 21.5999 112.2 20.6999C112.3 19.8999 112.1 18.9999 111.6 18.2999C111 17.6999 110.2 17.3999 109.3 17.4999ZM110.8 20.6999C110.9 21.2999 110.7 21.8999 110.5 22.3999C110.2 22.6999 109.8 22.8999 109.3 22.7999H108.3V18.5999H109.3C109.7 18.5999 110.1 18.6999 110.4 18.8999C110.7 19.4999 110.8 20.0999 110.8 20.6999Z" fill="white"/>
<path d="M114.9 21.2H117V20.2H114.9V18.6H117.2V17.5H113.6V23.9H117.3V22.8H114.9V21.2Z" fill="white"/>
<path d="M120.9 20.1999C120.6 20.0999 120.3 19.8999 120.1 19.6999C119.9 19.5999 119.8 19.3999 119.8 19.0999C119.8 18.5999 120.1 18.3999 120.9 18.3999C121.4 18.3999 121.9 18.4999 122.3 18.6999H122.4V17.5999C121.9 17.4999 121.4 17.3999 120.9 17.3999C120.3 17.3999 119.7 17.4999 119.2 17.7999C118.7 18.0999 118.5 18.6999 118.5 19.1999C118.5 19.9999 119 20.5999 120 21.0999C120.3 21.1999 120.7 21.3999 121 21.5999C121.2 21.6999 121.4 21.9999 121.4 22.1999C121.4 22.3999 121.3 22.5999 121.2 22.6999C120.9 22.7999 120.6 22.8999 120.3 22.8999C119.7 22.8999 119.2 22.7999 118.6 22.4999H118.5V23.6999C119.1 23.8999 119.7 23.9999 120.3 23.9999C120.9 23.9999 121.5 23.8999 122.1 23.5999C122.6 23.2999 122.8 22.6999 122.8 22.0999C122.8 21.5999 122.6 21.1999 122.3 20.8999C121.8 20.6999 121.4 20.3999 120.9 20.1999Z" fill="white"/>
<path d="M125.3 17.5H124V23.9H125.3V17.5Z" fill="white"/>
<path d="M129.4 21.2999H130.7V22.2999C130.7 22.4999 130.6 22.5999 130.5 22.6999C130.2 22.7999 130 22.8999 129.7 22.7999C129.2 22.7999 128.8 22.6999 128.5 22.2999C128.2 21.7999 128.1 21.1999 128.1 20.5999C128.1 19.9999 128.2 19.3999 128.5 18.8999C128.8 18.4999 129.3 18.3999 129.8 18.3999C130.4 18.3999 131 18.4999 131.5 18.7999H131.6V17.6999C131 17.4999 130.4 17.3999 129.8 17.3999C128.9 17.2999 128.1 17.5999 127.5 18.2999C127 18.9999 126.7 19.8999 126.7 20.7999C126.6 21.6999 126.9 22.5999 127.4 23.2999C128 23.8999 128.8 24.1999 129.7 24.0999C130.3 24.0999 130.9 23.9999 131.4 23.6999C131.8 23.3999 132 22.8999 132 22.3999V20.2999H129.5L129.4 21.2999Z" fill="white"/>
<path d="M137.499 21.3C137.499 21.5 137.499 21.7 137.499 21.8C137.399 21.7 137.399 21.6 137.299 21.5L134.799 17.5H133.399V24H134.699V20.2C134.699 20 134.699 19.8 134.699 19.6C134.699 19.7 134.799 19.8 134.799 19.9L137.399 24H138.799V17.6H137.499V21.3Z" fill="white"/>
<path d="M86.1994 0.699902L97.8994 7.3999C99.5994 8.2999 100.599 10.0999 100.599 12.0999V30.4999C100.599 32.3999 99.5994 34.1999 97.8994 35.1999L86.1994 41.8999C84.4994 42.8999 82.4994 42.8999 80.7994 41.8999L69.0994 35.1999C67.3994 34.1999 66.3994 32.4999 66.3994 30.4999V12.0999C66.3994 10.1999 67.3994 8.3999 69.0994 7.3999L80.7994 0.699902C82.4994 -0.200098 84.4994 -0.200098 86.1994 0.699902ZM81.7994 2.4999L70.1994 9.1999C69.1994 9.7999 68.4994 10.8999 68.4994 12.0999V30.4999C68.4994 31.6999 69.0994 32.7999 70.1994 33.3999L81.8994 40.0999C82.8994 40.6999 84.1994 40.6999 85.1994 40.0999L96.8994 33.3999C97.9994 32.7999 98.5994 31.6999 98.5994 30.4999V12.0999C98.5994 10.8999 97.9994 9.7999 96.8994 9.1999L85.0994 2.4999C84.0994 1.8999 82.7994 1.8999 81.7994 2.4999ZM79.0994 24.0999L78.6994 24.2999C77.8994 24.5999 77.4994 25.2999 77.5994 26.0999V27.4999C77.5994 27.7999 77.7994 27.9999 78.0994 27.8999C78.1994 27.8999 78.1994 27.8999 78.2994 27.7999L81.2994 26.0999C82.0994 25.6999 82.5994 24.8999 82.4994 23.9999V19.5999C82.5994 18.6999 82.0994 17.8999 81.2994 17.4999L76.3994 14.9999C76.1994 14.8999 75.8994 14.9999 75.7994 15.1999C75.7994 15.2999 75.6994 15.2999 75.6994 15.3999V16.7999C75.5994 17.5999 75.9994 18.3999 76.7994 18.5999L79.0994 19.8999C79.3994 19.9999 79.5994 20.2999 79.4994 20.6999V23.3999C79.4994 23.6999 79.3994 23.9999 79.0994 24.0999ZM78.3994 9.0999L73.3994 11.9999C72.5994 12.2999 72.0994 13.0999 72.2994 13.8999V15.2999C72.2994 15.5999 72.4994 15.7999 72.7994 15.6999C72.8994 15.6999 72.8994 15.6999 72.9994 15.5999L79.1994 11.9999C79.4994 11.7999 79.7994 11.7999 80.0994 11.9999L83.3994 13.7999C83.5994 13.8999 83.8994 13.7999 83.9994 13.5999C83.9994 13.4999 84.0994 13.4999 84.0994 13.3999V12.0999C84.1994 11.2999 83.7994 10.4999 82.9994 10.1999L80.8994 8.9999C79.9994 8.6999 79.0994 8.6999 78.3994 9.0999ZM85.4994 25.7999C85.3994 26.5999 85.7994 27.3999 86.5994 27.6999L87.7994 28.3999C87.9994 28.4999 88.2994 28.3999 88.3994 28.1999C88.3994 28.0999 88.4994 28.0999 88.4994 27.9999V17.2999C88.5994 16.4999 88.1994 15.6999 87.3994 15.3999L86.1994 14.6999C85.9994 14.5999 85.6994 14.6999 85.5994 14.8999C85.5994 14.9999 85.4994 14.9999 85.4994 15.0999V25.7999ZM90.9994 28.5999L86.5994 31.0999C85.7994 31.3999 85.3994 32.1999 85.4994 32.9999V34.3999C85.4994 34.6999 85.6994 34.8999 85.9994 34.7999C86.0994 34.7999 86.0994 34.7999 86.1994 34.6999L93.1994 30.6999C93.9994 30.2999 94.4994 29.4999 94.3994 28.5999V13.9999C94.4994 13.0999 93.9994 12.2999 93.1994 11.8999L86.1994 7.8999C85.9994 7.7999 85.6994 7.8999 85.5994 8.0999C85.5994 8.1999 85.5994 8.1999 85.5994 8.2999V9.5999C85.4994 10.3999 85.8994 11.1999 86.6994 11.3999L90.9994 13.9999C91.2994 14.0999 91.4994 14.3999 91.3994 14.7999V27.8999C91.4994 28.0999 91.2994 28.3999 90.9994 28.5999ZM72.5994 21.6999C72.4994 20.8999 72.8994 20.0999 73.6994 19.7999L74.8994 19.0999C75.0994 18.9999 75.3994 19.0999 75.4994 19.2999C75.4994 19.3999 75.4994 19.3999 75.4994 19.4999V27.7999C75.4994 28.0999 75.6994 28.3999 75.8994 28.5999L80.2994 31.0999C81.0994 31.3999 81.4994 32.1999 81.3994 32.9999V34.3999C81.3994 34.6999 81.1994 34.8999 80.8994 34.7999C80.7994 34.7999 80.7994 34.7999 80.6994 34.6999L73.6994 30.6999C72.8994 30.2999 72.3994 29.4999 72.4994 28.5999L72.5994 21.6999Z" fill="white"/>
<path d="M128.9 35.8999C128.9 36.1999 128.8 36.2999 128.5 36.2999H127.6L127.7 37.1999H129C129.7 37.1999 129.9 36.8999 129.9 36.2999V29.4999L128.9 29.3999V35.8999Z" fill="white"/>
<path d="M128.3 35.2V30.1L127.3 30V31.5C126.7 31 126.2 30.5 125.6 29.9L125.8 29.6L124.9 29.2C124.2 30.2 123.4 31.2 122.5 32L123.2 32.7L123.4 32.5999V36C123.4 36.7 123.7 37 124.5 37H126.3C126.8 37 127.2 36.6999 127.2 36.2999V36.2V35.2999L126.2 35.0999V35.7C126.2 35.9 126.1 36.0999 125.9 36.0999H124.8C124.5 36.0999 124.5 36 124.5 35.7V33.0999H125.8V33.9C125.8 34.2 125.7 34.2 125.5 34.2H125L125.1 35H125.8C126.6 35 126.7 34.8 126.7 34.2V32.2999L125.9 32C125.8 32.1 125.6 32.2 125.4 32.2H124C124.5 31.7 124.9 31.3 125.3 30.7C125.8 31.3 126.3 31.8 126.9 32.4L127.5 31.7999V35.2999H128.3V35.2Z" fill="white"/>
<path d="M166.1 34.4C166.1 33.7 165.9 33.1 165.5 32.6L166 30.7V29.8L165.1 29.5C164.9 29.6 164.7 29.7 164.5 29.7H163.5V37.2H164.4V35.1L164.5 35.8H165C166 35.7 166.1 35.1 166.1 34.4ZM164.9 34.8H164.6V30.7H165.2L164.7 32.8C165.1 33.3 165.3 33.9 165.3 34.5C165.2 34.7 165.1 34.8 164.9 34.8Z" fill="white"/>
<path d="M170.1 34.9998V35.9998C170.1 36.0998 170.1 36.1998 169.9 36.1998H169.6C169.5 36.1998 169.5 36.0998 169.5 35.9998V34.1998H170.6V33.2998H166.2V34.1998H167V34.2998C167 35.2998 166.4 36.1998 165.5 36.5998L166.2 37.2998C167.3 36.7998 168 35.5998 168 34.3998V34.1998H168.6V36.1998C168.6 36.7998 168.9 36.9998 169.5 36.9998H170.2C170.7 36.9998 171 36.7998 171 36.1998V35.0998L170.1 34.9998Z" fill="white"/>
<path d="M156.5 31.7998H161.5V32.7998H162.5V30.9998L161.6 30.6998C161.5 30.7998 161.3 30.8998 161.2 30.8998C161.4 30.4998 161.7 30.1998 161.9 29.7998L160.9 29.2998C160.6 29.7998 160.3 30.2998 159.9 30.8998H159.3L159.7 30.6998C159.4 30.1998 159.1 29.6998 158.8 29.2998L157.9 29.6998C158.1 30.0998 158.3 30.4998 158.6 30.8998H157.5L157.8 30.6998C157.5 30.1998 157.2 29.6998 156.9 29.2998L156 29.7998C156.2 30.1998 156.4 30.5998 156.7 30.8998H155.5V32.7998H156.5V31.7998Z" fill="white"/>
<path d="M145.9 33.6999V32.8999L144.9 32.5999C144.8 32.6999 144.6 32.7999 144.4 32.7999H142C142.7 32.3999 143.1 31.6999 143.1 30.8999V30.5999H144.3V31.5999C144.3 32.2999 144.6 32.4999 145.3 32.4999H146.2L146.3 31.5999H145.5C145.3 31.5999 145.3 31.4999 145.3 31.3999V29.8999L144.3 29.5999C144.1 29.6999 143.9 29.7999 143.7 29.7999H142.1V30.6999C142.1 31.3999 141.8 31.9999 141.2 32.2999L141.8 32.8999H141.5V33.7999H142.3L141.7 34.0999C142 34.6999 142.4 35.1999 142.9 35.5999C142.3 35.9999 141.6 36.2999 141 36.4999L141.5 37.2999C142.3 36.9999 143 36.6999 143.7 36.1999C144.4 36.6999 145.2 37.0999 146 37.2999L146.5 36.3999C145.8 36.1999 145.2 35.8999 144.6 35.4999C145.2 35.0999 145.6 34.3999 145.9 33.6999ZM142.7 33.6999H144.8C144.6 34.1999 144.2 34.5999 143.8 34.9999C143.4 34.5999 143 34.1999 142.7 33.6999Z" fill="white"/>
<path d="M141.6 34.7998L141 35.1998V32.0998L140.1 31.7998C139.9 31.8998 139.7 31.9998 139.5 31.9998H139V32.9998H140V35.4998C140 35.7998 139.9 36.0998 139.6 36.2998L140.3 37.0998L142.1 35.4998L141.6 34.7998Z" fill="white"/>
<path d="M135.7 36C135.7 36.2 135.6 36.3 135.4 36.3H133.8C133.6 36.3 133.5 36.2 133.5 36V35.1L132.5 35V36.1C132.5 36.9 132.7 37.1 133.5 37.1H135.6C136.2 37.1 136.6 36.9 136.6 36.3V35.5L135.6 35.3L135.7 36Z" fill="white"/>
<path d="M130.8 36.5L131.7 37C132 36.5 132.3 35.9 132.6 35.3L131.8 35C131.4 35.5 131.1 36 130.8 36.5Z" fill="white"/>
<path d="M119.8 30.9C120.5 30.8 121.3 30.6 122 30.4L121.6 29.5C120.7 29.8 119.8 30 118.8 30.1V33.2999C118.8 34.0999 118.7 34.8999 118.5 35.5999C118.3 35.2999 118.1 34.8999 117.9 34.5999L117.2 34.9V34.5H118.5V33.5999H117.2V33H118.6V32.0999H117.8C117.9 31.7999 118.1 31.5 118.2 31.1L117.7 30.9H118.6V30H117.2V29.2999L116.2 29.2V30.1H114.9V31H115.7L115.2 31.2L115.6 32.0999H114.7V33H116.3V33.5999H114.9V34.5H116.3V36C116.3 36.2 116.2 36.2 116.1 36.2H115.6C115.8 35.8 116 35.3 116.2 34.9L115.4 34.5999C115.2 35.1999 114.9 35.8 114.5 36.4L115.4 36.7999L115.7 36.2999L115.8 37.2H116.5C117.2 37.2 117.4 36.9999 117.4 36.2999V35.2C117.6 35.5 117.7 35.8999 118 36.2999L118.6 36C118.5 36.3 118.3 36.7 118.1 37L119 37.4C119.7 36.2 120.1 34.9 120 33.5V33.2H120.7V37.2999H121.7V33.2H122.4V32.2999H120L119.8 30.9ZM116.2 32.0999L116.6 31.9C116.4 31.6 116.3 31.3 116.1 31H117.3C117.2 31.4 117 31.7999 116.8 32.0999H116.2Z" fill="white"/>
<path d="M112.699 35.8999C112.699 36.1999 112.599 36.2999 112.299 36.2999H111.399L111.499 37.1999H112.699C113.399 37.1999 113.599 36.8999 113.599 36.2999V29.4999L112.599 29.3999L112.699 35.8999Z" fill="white"/>
<path d="M112 35.2V30.1L111 30V31.5C110.4 31 109.9 30.5 109.4 29.9C109.5 29.8 109.5 29.7 109.6 29.6L108.7 29.2C108 30.2 107.2 31.2 106.3 32L107 32.7L107.2 32.5999V36C107.2 36.7 107.5 37 108.3 37H110.1C110.6 37 111 36.6999 111 36.2999V36.2V35.2999L110 35.0999V35.7C110 35.9 109.9 36.0999 109.7 36.0999H108.5C108.2 36.0999 108.2 36 108.2 35.7V33.0999H109.5V33.9C109.5 34.2 109.4 34.2 109.2 34.2H108.6L108.7 35H109.4C110.1 35 110.3 34.8 110.3 34.2V32.2999L109.5 32C109.4 32.1 109.2 32.2 109 32.2H107.6C108.1 31.7 108.5 31.3 108.9 30.7C109.4 31.3 109.9 31.8 110.5 32.4L111.1 31.7999V35.2999H112V35.2Z" fill="white"/>
<path d="M166.9 32.7H170V31.9H170.7V30.2L169.8 29.9C169.6 30 169.4 30.1 169.2 30.1H168.9V29.2999L167.9 29.2V30.1H166.2V31.9H166.9V32.7ZM169.7 31.1V31.7999H167.1V31.1H169.7Z" fill="white"/>
<path d="M141.399 30.8999C140.899 30.2999 140.599 29.8999 140.199 29.3999L139.399 29.8999C139.799 30.4999 140.099 30.8999 140.599 31.4999L141.399 30.8999Z" fill="white"/>
<path d="M138.299 31.1998H136.499C136.599 31.0998 136.599 30.9998 136.699 30.7998L136.199 30.6998H137.799V29.9998H135.099V29.3998L133.999 29.2998V29.9998H131.299V30.7998H132.899L132.499 30.8998C132.599 30.9998 132.599 31.0998 132.699 31.2998H130.899V31.9998H138.299V31.1998ZM133.599 30.6998H135.599C135.499 30.8998 135.399 30.9998 135.299 31.1998H133.999C133.799 31.0998 133.699 30.8998 133.599 30.6998Z" fill="white"/>
<path d="M136.7 35.4C136.9 35.9 137.1 36.4 137.5 37L138.4 36.6C138.1 36 137.9 35.6 137.6 35L136.7 35.4Z" fill="white"/>
<path d="M149.3 35.2V32L148.4 31.7C148.2 31.8 148 31.9 147.8 31.9H147.2V32.9H148.2V35.5C148.2 35.8 148.1 36.0999 147.8 36.2999L148.5 37.0999L150.6 35.2999L150 34.5999L149.3 35.2Z" fill="white"/>
<path d="M152.8 29.3998L151.7 29.2998V31.9998H149.7V33.0998H151.7V37.1998H152.8V33.0998H154.7V31.9998H152.8V29.3998Z" fill="white"/>
<path d="M161.2 33.2999V32.5L160.3 32.2C160.2 32.3 160 32.4 159.8 32.4H156.7V33.2999H159.6C159.2 33.4999 158.9 33.7 158.5 33.9V34.2H155.3V35.2H158.5V36C158.5 36.2 158.4 36.2999 158.2 36.2999H157.2L157.3 37.2999H158.5C159.3 37.2999 159.5 37 159.5 36.4V35.4H162.5V34.4H159.6C160.2 34 160.7 33.6999 161.2 33.2999Z" fill="white"/>
<path d="M149.899 30.7998C149.399 30.1998 148.999 29.6998 148.699 29.2998L147.899 29.7998C148.299 30.2998 148.699 30.8998 149.099 31.4998L149.899 30.7998Z" fill="white"/>
<path d="M137.4 32.3999L136.5 32.0999C136.3 32.1999 136.1 32.2999 135.9 32.2999H131.7V34.8999H134.3L133.9 35.0999C134.1 35.3999 134.3 35.7999 134.5 36.0999L135.4 35.5999C135.2 35.2999 135.1 35.0999 134.9 34.7999H137.3V32.3999H137.4ZM132.7 32.9999H136.4V33.2999H132.7V32.9999ZM136.5 34.1999H132.8V33.8999H136.5V34.1999Z" fill="white"/>
</g>
<defs>
<clipPath id="clip0_1109_7941">
<rect width="171" height="42.6" fill="white"/>
</clipPath>
</defs>
</svg>
